<?xml version="1.0" encoding="UTF-8"?>
<!DOCTYPE svg PUBLIC "-//W3C//DTD SVG 1.1//EN" "http://www.w3.org/Graphics/SVG/1.1/DTD/svg11.dtd">
<svg xmlns="http://www.w3.org/2000/svg" version="1.1" width="117px" height="117px" style="shape-rendering:geometricPrecision; text-rendering:geometricPrecision; image-rendering:optimizeQuality; fill-rule:evenodd; clip-rule:evenodd" xmlns:xlink="http://www.w3.org/1999/xlink">
<g><path style="opacity:0.994" fill="#cfcfcf" d="M 87.5,-0.5 C 88.1667,-0.5 88.8333,-0.5 89.5,-0.5C 94.0757,2.40339 98.0757,6.07006 101.5,10.5C 101.062,10.4346 100.728,10.6012 100.5,11C 101.167,12 101.833,13 102.5,14C 101.244,14.4169 100.577,15.2502 100.5,16.5C 96.4898,12.6566 92.3232,8.98989 88,5.5C 86.1266,6.86767 84.46,8.53434 83,10.5C 82.4209,11.9285 82.5876,13.2618 83.5,14.5C 81.6916,14.4914 80.0249,14.9914 78.5,16C 80.4257,16.4224 81.4257,17.5891 81.5,19.5C 80.5,20.1667 79.5,20.8333 78.5,21.5C 77.3961,19.6055 76.7295,17.9388 76.5,16.5C 76.5045,8.49004 80.1712,2.82337 87.5,-0.5 Z"/></g>
<g><path style="opacity:0.455" fill="#858786" d="M 20.5,2.5 C 19.5,4.16667 18.1667,5.5 16.5,6.5C 16.8333,4.16667 18.1667,2.83333 20.5,2.5 Z"/></g>
<g><path style="opacity:1" fill="#d0d1d0" d="M 36.5,10.5 C 36.2252,12.8418 35.3919,12.8418 34,10.5C 33.3333,15.8333 32.6667,15.8333 32,10.5C 31.3292,9.74756 30.4959,9.41423 29.5,9.5C 28.1434,8.31461 26.6434,7.31461 25,6.5C 22.6158,8.27301 20.4491,10.273 18.5,12.5C 16.981,10.8211 16.3143,9.15441 16.5,7.5C 16.5,7.16667 16.5,6.83333 16.5,6.5C 18.1667,5.5 19.5,4.16667 20.5,2.5C 23.8834,-0.113385 27.2167,0.0532812 30.5,3C 33.1177,5.1057 35.1177,7.6057 36.5,10.5 Z"/></g>
<g><path style="opacity:1" fill="#cdcdcd" d="M 29.5,9.5 C 30.4959,9.41423 31.3292,9.74756 32,10.5C 32.6667,15.8333 33.3333,15.8333 34,10.5C 35.3919,12.8418 36.2252,12.8418 36.5,10.5C 37.4614,12.2646 37.7947,14.2646 37.5,16.5C 35.7376,17.2623 34.7376,18.5956 34.5,20.5C 31.2099,22.1236 28.5433,24.4569 26.5,27.5C 26.4142,26.5041 26.7476,25.6708 27.5,25C 25.4873,24.1247 25.4873,22.7913 27.5,21C 26.9056,20.5357 26.2389,20.369 25.5,20.5C 27.8603,18.1348 29.8603,15.4681 31.5,12.5C 30.8075,11.4822 30.1408,10.4822 29.5,9.5 Z"/></g>
<g><path style="opacity:1" fill="#d2d2d2" d="M 16.5,7.5 C 16.3143,9.15441 16.981,10.8211 18.5,12.5C 16.8036,14.5248 15.137,16.5248 13.5,18.5C 11.4555,18.2004 9.45554,17.867 7.5,17.5C 9.78812,13.5442 12.7881,10.2109 16.5,7.5 Z"/></g>
<g><path style="opacity:0.973" fill="#d1d1d1" d="M 83.5,14.5 C 87.5,17.8333 91.1667,21.5 94.5,25.5C 94.2041,27.403 93.5375,29.0697 92.5,30.5C 88.5,27.1667 84.8333,23.5 81.5,19.5C 81.4257,17.5891 80.4257,16.4224 78.5,16C 80.0249,14.9914 81.6916,14.4914 83.5,14.5 Z"/></g>
<g><path style="opacity:0.99" fill="#d1d1d1" d="M 76.5,16.5 C 76.7295,17.9388 77.3961,19.6055 78.5,21.5C 78.3893,22.1174 78.056,22.6174 77.5,23C 72.874,23.1122 68.5407,24.2789 64.5,26.5C 61.7211,25.3265 61.0545,23.4932 62.5,21C 67.0956,19.1863 71.7623,17.6863 76.5,16.5 Z"/></g>
<g><path style="opacity:0.994" fill="#d0d0d0" d="M 37.5,16.5 C 45.9487,16.3487 52.9487,19.3487 58.5,25.5C 58.44,26.0431 58.1067,26.3764 57.5,26.5C 55.8067,24.9733 53.9734,23.6399 52,22.5C 52.3308,24.0187 52.1641,25.352 51.5,26.5C 47.2879,23.9635 42.6212,22.7968 37.5,23C 36.6266,21.955 35.6266,21.1217 34.5,20.5C 34.7376,18.5956 35.7376,17.2623 37.5,16.5 Z"/></g>
<g><path style="opacity:0.89" fill="#d3d3d3" d="M 101.5,10.5 C 105.909,14.2419 109.909,18.2419 113.5,22.5C 113.649,23.552 113.483,24.552 113,25.5C 112.417,23.9984 111.584,22.6651 110.5,21.5C 110.24,22.9049 109.907,24.2382 109.5,25.5C 106.694,22.2721 103.694,19.2721 100.5,16.5C 100.577,15.2502 101.244,14.4169 102.5,14C 101.833,13 101.167,12 100.5,11C 100.728,10.6012 101.062,10.4346 101.5,10.5 Z"/></g>
<g><path style="opacity:1" fill="#cecece" d="M 113.5,22.5 C 116.022,26.313 115.355,29.6463 111.5,32.5C 110.811,31.2264 109.977,31.2264 109,32.5C 108.333,31.5 108.333,30.5 109,29.5C 109.654,30.6956 110.154,30.6956 110.5,29.5C 110.043,28.7025 109.376,28.3691 108.5,28.5C 109.11,27.609 109.443,26.609 109.5,25.5C 109.907,24.2382 110.24,22.9049 110.5,21.5C 111.584,22.6651 112.417,23.9984 113,25.5C 113.483,24.552 113.649,23.552 113.5,22.5 Z"/></g>
<g><path style="opacity:1" fill="#cdcdcd" d="M 58.5,25.5 C 61.147,27.8109 63.8136,30.1442 66.5,32.5C 67.7537,34.6431 67.7537,36.6431 66.5,38.5C 64.0582,38.8808 63.3915,38.2141 64.5,36.5C 63.9744,34.7697 62.9744,33.4363 61.5,32.5C 61.9302,33.7117 61.9302,35.045 61.5,36.5C 58.4729,32.8062 55.1396,29.4729 51.5,26.5C 52.1641,25.352 52.3308,24.0187 52,22.5C 53.9734,23.6399 55.8067,24.9733 57.5,26.5C 58.1067,26.3764 58.44,26.0431 58.5,25.5 Z"/></g>
<g><path style="opacity:1" fill="#d1d1d1" d="M 25.5,20.5 C 26.2389,20.369 26.9056,20.5357 27.5,21C 25.4873,22.7913 25.4873,24.1247 27.5,25C 26.7476,25.6708 26.4142,26.5041 26.5,27.5C 24.7267,30.0599 22.7267,32.3932 20.5,34.5C 20.1249,32.3024 19.4582,30.3024 18.5,28.5C 20.8333,25.8333 23.1667,23.1667 25.5,20.5 Z"/></g>
<g><path style="opacity:0.999" fill="#d0d0d0" d="M 7.5,17.5 C 9.45554,17.867 11.4555,18.2004 13.5,18.5C 10.268,21.5659 7.60131,25.0659 5.5,29C 7.91053,33.6991 11.2439,34.8658 15.5,32.5C 15.5858,33.4959 15.2524,34.3292 14.5,35C 12.7818,35.346 11.1151,35.846 9.5,36.5C 8.57451,35.3595 7.74117,35.3595 7,36.5C 6.6582,34.3808 5.82487,34.0474 4.5,35.5C 3.76109,35.631 3.09442,35.4643 2.5,35C 1.60064,33.3484 0.60064,31.8484 -0.5,30.5C -0.5,29.1667 -0.5,27.8333 -0.5,26.5C 2.16667,23.5 4.83333,20.5 7.5,17.5 Z"/></g>
<g><path style="opacity:0.983" fill="#d4d4d4" d="M 108.5,28.5 C 109.376,28.3691 110.043,28.7025 110.5,29.5C 110.154,30.6956 109.654,30.6956 109,29.5C 108.333,30.5 108.333,31.5 109,32.5C 109.977,31.2264 110.811,31.2264 111.5,32.5C 110.089,34.914 108.089,36.5806 105.5,37.5C 102.636,37.9358 100.303,37.1025 98.5,35C 99.7155,32.9045 100.549,33.0712 101,35.5C 102.698,34.2593 104.198,32.926 105.5,31.5C 106.167,30.1667 107.167,29.1667 108.5,28.5 Z"/></g>
<g><path style="opacity:1" fill="#d3d3d3" d="M 18.5,28.5 C 19.4582,30.3024 20.1249,32.3024 20.5,34.5C 20.5,35.1667 20.1667,35.5 19.5,35.5C 17.1087,38.917 13.7754,40.2503 9.5,39.5C 7.25124,38.9202 5.58457,37.5869 4.5,35.5C 5.82487,34.0474 6.6582,34.3808 7,36.5C 7.74117,35.3595 8.57451,35.3595 9.5,36.5C 11.1151,35.846 12.7818,35.346 14.5,35C 15.2524,34.3292 15.5858,33.4959 15.5,32.5C 16.5,31.1667 17.5,29.8333 18.5,28.5 Z"/></g>
<g><path style="opacity:1" fill="#cbcbcb" d="M 94.5,25.5 C 96.9635,27.4611 99.2968,29.6278 101.5,32C 102.928,32.5791 104.262,32.4124 105.5,31.5C 104.198,32.926 102.698,34.2593 101,35.5C 100.549,33.0712 99.7155,32.9045 98.5,35C 100.303,37.1025 102.636,37.9358 105.5,37.5C 101.409,37.5901 98.7422,39.5901 97.5,43.5C 96.9933,40.5205 96.66,37.8538 96.5,35.5C 95.1667,33.8333 93.8333,32.1667 92.5,30.5C 93.5375,29.0697 94.2041,27.403 94.5,25.5 Z"/></g>
<g><path style="opacity:1" fill="#d2d2d2" d="M 61.5,36.5 C 61.9302,35.045 61.9302,33.7117 61.5,32.5C 62.9744,33.4363 63.9744,34.7697 64.5,36.5C 63.3915,38.2141 64.0582,38.8808 66.5,38.5C 66.5,38.8333 66.5,39.1667 66.5,39.5C 64.6089,40.5361 62.7755,40.5361 61,39.5C 59.6976,40.0848 58.531,40.7515 57.5,41.5C 52.5635,39.6248 50.2301,36.2915 50.5,31.5C 51.086,31.2907 51.586,30.9574 52,30.5C 54.7953,32.2932 57.2953,34.4598 59.5,37C 60.4368,37.6917 61.1034,37.525 61.5,36.5 Z"/></g>
<g><path style="opacity:1" fill="#cdcdcd" d="M 19.5,35.5 C 22.6453,38.0464 24.312,41.3797 24.5,45.5C 22.9328,44.3192 22.0995,42.6526 22,40.5C 20.7964,41.4706 20.2964,42.4706 20.5,43.5C 19.2624,39.6893 18.5958,39.6893 18.5,43.5C 17.7326,42.828 17.0659,41.9947 16.5,41C 13.9644,40.8138 11.631,40.3138 9.5,39.5C 13.7754,40.2503 17.1087,38.917 19.5,35.5 Z"/></g>
<g><path style="opacity:1" fill="#d1d1d1" d="M 96.5,35.5 C 96.66,37.8538 96.9933,40.5205 97.5,43.5C 96.5998,47.5814 94.5998,51.0814 91.5,54C 90.2068,54.49 88.8734,54.6567 87.5,54.5C 87.3398,52.8008 87.5065,51.1341 88,49.5C 91.0167,46.4653 92.6834,42.7986 93,38.5C 94.0391,37.2899 95.2058,36.2899 96.5,35.5 Z"/></g>
<g><path style="opacity:0.916" fill="#d2d2d2" d="M 24.5,45.5 C 25.803,47.1423 27.1363,48.8089 28.5,50.5C 29.2916,51.9669 29.2916,53.3002 28.5,54.5C 27.2638,53.7542 25.9305,53.4208 24.5,53.5C 21.2719,50.931 19.2719,47.5977 18.5,43.5C 18.5958,39.6893 19.2624,39.6893 20.5,43.5C 20.2964,42.4706 20.7964,41.4706 22,40.5C 22.0995,42.6526 22.9328,44.3192 24.5,45.5 Z"/></g>
<g><path style="opacity:1" fill="#d4d4d4" d="M 66.5,46.5 C 68.5,47.8333 70.1667,49.5 71.5,51.5C 72.172,52.2674 73.0053,52.9341 74,53.5C 75.3876,52.4464 76.8876,52.2797 78.5,53C 77.944,53.3826 77.6107,53.8826 77.5,54.5C 77.1667,54.5 76.8333,54.5 76.5,54.5C 75.5272,55.7914 74.5272,55.7914 73.5,54.5C 72.2724,56.1759 70.9391,56.5092 69.5,55.5C 68.341,53.4701 67.6743,51.1368 67.5,48.5C 66.1779,48.33 65.0113,48.6634 64,49.5C 63.8039,47.8459 64.6372,46.8459 66.5,46.5 Z"/></g>
<g><path style="opacity:1" fill="#cfcfcf" d="M 66.5,39.5 C 65.5475,41.61 63.8808,42.7767 61.5,43C 63.8808,43.2233 65.5475,44.39 66.5,46.5C 64.6372,46.8459 63.8039,47.8459 64,49.5C 65.0113,48.6634 66.1779,48.33 67.5,48.5C 67.6743,51.1368 68.341,53.4701 69.5,55.5C 66.7746,54.287 64.4412,52.4536 62.5,50C 61.6683,49.3123 61.0016,49.479 60.5,50.5C 63.8333,54.5 67.5,58.1667 71.5,61.5C 73.0863,63.1727 73.7529,65.1727 73.5,67.5C 72.1266,67.6567 70.7932,67.49 69.5,67C 63.6983,62.1996 58.1983,57.033 53,51.5C 52.6174,52.056 52.1174,52.3893 51.5,52.5C 48.5,52.1667 47.1667,53.5 47.5,56.5C 45.3553,51.7878 46.6887,48.2878 51.5,46C 52.8989,45.4054 54.2322,45.5721 55.5,46.5C 57.1667,45.6667 58.8333,44.8333 60.5,44C 59.4293,43.1482 58.4293,42.3149 57.5,41.5C 58.531,40.7515 59.6976,40.0848 61,39.5C 62.7755,40.5361 64.6089,40.5361 66.5,39.5 Z"/></g>
<g><path style="opacity:0.977" fill="#d2d2d2" d="M 87.5,55.5 C 86.9423,56.7899 85.9423,57.6232 84.5,58C 85.8782,59.7134 87.5448,61.0467 89.5,62C 88.9056,62.4643 88.2389,62.631 87.5,62.5C 84.4552,59.4534 81.1219,56.7867 77.5,54.5C 77.6107,53.8826 77.944,53.3826 78.5,53C 76.8876,52.2797 75.3876,52.4464 74,53.5C 73.0053,52.9341 72.172,52.2674 71.5,51.5C 74.0072,48.964 77.0072,48.1307 80.5,49C 82.7293,51.4003 85.0626,53.567 87.5,55.5 Z"/></g>
<g><path style="opacity:1" fill="#cfcfcf" d="M 28.5,50.5 C 32.6961,54.1975 36.6961,58.0308 40.5,62C 40.0459,63.6217 39.0459,64.7884 37.5,65.5C 34.2889,63.3996 31.2889,61.0663 28.5,58.5C 27.1667,56.8333 25.8333,55.1667 24.5,53.5C 25.9305,53.4208 27.2638,53.7542 28.5,54.5C 29.2916,53.3002 29.2916,51.9669 28.5,50.5 Z"/></g>
<g><path style="opacity:0.988" fill="#d0d0d0" d="M 76.5,54.5 C 77.9729,57.3542 80.1395,59.6875 83,61.5C 83.9859,63.9248 83.3193,65.5915 81,66.5C 76.6298,63.2944 72.7965,59.6277 69.5,55.5C 70.9391,56.5092 72.2724,56.1759 73.5,54.5C 74.5272,55.7914 75.5272,55.7914 76.5,54.5 Z"/></g>
<g><path style="opacity:1" fill="#d2d2d2" d="M 51.5,52.5 C 54.1667,55.5 56.8333,58.5 59.5,61.5C 57.8762,61.3601 56.7096,62.0267 56,63.5C 55.3292,62.7476 54.4959,62.4142 53.5,62.5C 53.1193,61.0689 52.1193,60.2355 50.5,60C 51.694,57.3422 50.694,56.1756 47.5,56.5C 47.1667,53.5 48.5,52.1667 51.5,52.5 Z"/></g>
<g><path style="opacity:0.994" fill="#cecece" d="M 87.5,55.5 C 90.1667,57.5 92.5,59.8333 94.5,62.5C 92.3523,62.3894 92.019,63.056 93.5,64.5C 92.3881,65.2652 91.7214,66.2652 91.5,67.5C 90.197,65.8577 88.8637,64.1911 87.5,62.5C 88.2389,62.631 88.9056,62.4643 89.5,62C 87.5448,61.0467 85.8782,59.7134 84.5,58C 85.9423,57.6232 86.9423,56.7899 87.5,55.5 Z"/></g>
<g><path style="opacity:1" fill="#cecece" d="M 47.5,56.5 C 50.694,56.1756 51.694,57.3422 50.5,60C 52.1193,60.2355 53.1193,61.0689 53.5,62.5C 51.8041,60.871 50.8041,61.2043 50.5,63.5C 50.1668,64.8411 49.1668,66.1744 47.5,67.5C 47.1667,67.5 46.8333,67.5 46.5,67.5C 43.73,63.5709 44.0633,59.9043 47.5,56.5 Z"/></g>
<g><path style="opacity:0.901" fill="#cfcfcf" d="M 28.5,58.5 C 28.6567,59.8734 28.49,61.2068 28,62.5C 25.6258,65.2632 23.7925,68.2632 22.5,71.5C 22.6495,70.448 22.4828,69.448 22,68.5C 21.5814,69.6721 20.9147,70.6721 20,71.5C 19.9519,69.4559 20.4519,67.4559 21.5,65.5C 21.0302,64.537 20.3635,64.537 19.5,65.5C 20.7284,62.9249 22.3951,60.5916 24.5,58.5C 25.7264,57.6371 27.0597,57.6371 28.5,58.5 Z"/></g>
<g><path style="opacity:1" fill="#cfcfcf" d="M 59.5,61.5 C 62.7642,63.0941 65.4309,65.4275 67.5,68.5C 69.0021,70.8326 68.5021,72.4993 66,73.5C 61.6514,69.9812 57.4847,66.3146 53.5,62.5C 54.4959,62.4142 55.3292,62.7476 56,63.5C 56.7096,62.0267 57.8762,61.3601 59.5,61.5 Z"/></g>
<g><path style="opacity:1" fill="#d2d2d2" d="M 94.5,62.5 C 95.9313,63.7804 96.5979,65.4471 96.5,67.5C 96.6715,69.4918 96.0049,71.1585 94.5,72.5C 95.4991,74.505 94.8324,75.8383 92.5,76.5C 92.4921,73.4552 92.1587,70.4552 91.5,67.5C 91.7214,66.2652 92.3881,65.2652 93.5,64.5C 92.019,63.056 92.3523,62.3894 94.5,62.5 Z"/></g>
<g><path style="opacity:0.997" fill="#cecece" d="M 47.5,67.5 C 49.3138,67.7721 51.3138,67.9387 53.5,68C 54.6341,69.016 54.3008,69.6827 52.5,70C 55.2186,70.805 56.2186,72.305 55.5,74.5C 49.1667,69.5 48.5,70.1667 53.5,76.5C 51.2843,75.7974 49.451,74.4641 48,72.5C 48.0773,73.7376 47.9106,74.7376 47.5,75.5C 44.8062,72.7943 45.1395,70.961 48.5,70C 46.3808,69.6582 46.0474,68.8249 47.5,67.5 Z"/></g>
<g><path style="opacity:0.953" fill="#d2d2d2" d="M 50.5,63.5 C 55.1998,67.5331 59.5332,71.8665 63.5,76.5C 62.8333,77.8333 61.8333,78.8333 60.5,79.5C 58.4788,78.1455 56.8121,76.4788 55.5,74.5C 56.2186,72.305 55.2186,70.805 52.5,70C 54.3008,69.6827 54.6341,69.016 53.5,68C 51.3138,67.9387 49.3138,67.7721 47.5,67.5C 49.1668,66.1744 50.1668,64.8411 50.5,63.5 Z"/></g>
<g><path style="opacity:0.983" fill="#cfcfcf" d="M 96.5,67.5 C 97.5253,70.9111 98.8586,74.2444 100.5,77.5C 99.8902,78.391 99.5569,79.391 99.5,80.5C 98.2921,79.7659 96.9587,79.4326 95.5,79.5C 94.1667,78.8333 93.1667,77.8333 92.5,76.5C 94.8324,75.8383 95.4991,74.505 94.5,72.5C 96.0049,71.1585 96.6715,69.4918 96.5,67.5 Z"/></g>
<g><path style="opacity:0.998" fill="#d0d0d0" d="M 22.5,71.5 C 23.4171,74.0048 23.4171,76.3382 22.5,78.5C 22.6495,77.448 22.4828,76.448 22,75.5C 20.5144,78.4028 19.0144,78.7361 17.5,76.5C 17.3354,73.4816 17.502,70.4816 18,67.5C 18.2784,66.5842 18.7784,65.9175 19.5,65.5C 20.3635,64.537 21.0302,64.537 21.5,65.5C 20.4519,67.4559 19.9519,69.4559 20,71.5C 20.9147,70.6721 21.5814,69.6721 22,68.5C 22.4828,69.448 22.6495,70.448 22.5,71.5 Z"/></g>
<g><path style="opacity:0.989" fill="#d3d3d3" d="M 113.5,83.5 C 112.305,83.6775 111.138,84.0109 110,84.5C 108.594,83.5862 107.094,82.9195 105.5,82.5C 103.698,81.5418 101.698,80.8751 99.5,80.5C 99.5569,79.391 99.8902,78.391 100.5,77.5C 106.343,75.9177 110.677,77.9177 113.5,83.5 Z"/></g>
<g><path style="opacity:0.903" fill="#d0d0d0" d="M 16.5,77.5 C 16.9382,77.4346 17.2716,77.6012 17.5,78C 16.6667,78.8333 15.8333,79.6667 15,80.5C 13.9505,79.4829 12.7839,79.3162 11.5,80C 13.797,81.1597 13.4637,82.1597 10.5,83C 12.437,83.1216 13.7703,83.955 14.5,85.5C 13.2618,84.5876 11.9285,84.4209 10.5,85C 9.15153,87.0104 7.8182,89.0104 6.5,91C 9.07844,94.6104 12.0784,97.777 15.5,100.5C 14.2794,101.028 13.1127,101.695 12,102.5C 11.5,101.333 10.6667,100.5 9.5,100C 10.1667,99.6667 10.8333,99.3333 11.5,99C 7.28981,96.624 6.28981,97.124 8.5,100.5C -1.33902,95.1013 -2.00569,88.6013 6.5,81C 9.66964,79.2705 13.003,78.1038 16.5,77.5 Z"/></g>
<g><path style="opacity:0.937" fill="#d5d5d5" d="M 46.5,67.5 C 46.8333,67.5 47.1667,67.5 47.5,67.5C 46.0474,68.8249 46.3808,69.6582 48.5,70C 45.1395,70.961 44.8062,72.7943 47.5,75.5C 47.9106,74.7376 48.0773,73.7376 48,72.5C 49.451,74.4641 51.2843,75.7974 53.5,76.5C 53.5106,78.0174 54.1772,79.1841 55.5,80C 54.4293,80.8518 53.4293,81.6851 52.5,82.5C 49.5361,80.0381 46.7028,77.3714 44,74.5C 43.162,71.5193 43.9953,69.1859 46.5,67.5 Z"/></g>
<g><path style="opacity:1" fill="#d1d1d1" d="M 22.5,78.5 C 21.7101,79.7942 20.7101,80.9609 19.5,82C 21.0414,83.3712 22.3747,84.8712 23.5,86.5C 22.6906,87.4687 21.6906,88.3021 20.5,89C 21.8228,89.8159 22.4894,90.9826 22.5,92.5C 19.8333,90.1667 17.1667,87.8333 14.5,85.5C 13.7703,83.955 12.437,83.1216 10.5,83C 13.4637,82.1597 13.797,81.1597 11.5,80C 12.7839,79.3162 13.9505,79.4829 15,80.5C 15.8333,79.6667 16.6667,78.8333 17.5,78C 17.2716,77.6012 16.9382,77.4346 16.5,77.5C 16.5,76.8333 16.8333,76.5 17.5,76.5C 19.0144,78.7361 20.5144,78.4028 22,75.5C 22.4828,76.448 22.6495,77.448 22.5,78.5 Z"/></g>
<g><path style="opacity:1" fill="#cccccc" d="M 53.5,76.5 C 56.8333,79.1667 59.8333,82.1667 62.5,85.5C 60.7697,86.0256 59.4363,87.0256 58.5,88.5C 57.5416,88.0472 56.7083,87.3805 56,86.5C 55.5172,87.448 55.3505,88.448 55.5,89.5C 54.596,88.791 54.2627,87.791 54.5,86.5C 53.5,86.5 52.5,86.5 51.5,86.5C 52.2625,85.7321 53.2625,85.2321 54.5,85C 53.6195,84.2917 52.9528,83.4584 52.5,82.5C 53.4293,81.6851 54.4293,80.8518 55.5,80C 54.1772,79.1841 53.5106,78.0174 53.5,76.5 Z"/></g>
<g><path style="opacity:1" fill="#cdcdcd" d="M 95.5,79.5 C 96.9587,79.4326 98.2921,79.7659 99.5,80.5C 101.698,80.8751 103.698,81.5418 105.5,82.5C 104.448,82.3505 103.448,82.5172 102.5,83C 98.631,87.037 94.631,90.8704 90.5,94.5C 88.5445,94.133 86.5445,93.7996 84.5,93.5C 88.2964,89.2022 92.2964,85.0356 96.5,81C 95.944,80.6174 95.6107,80.1174 95.5,79.5 Z"/></g>
<g><path style="opacity:1" fill="#cbcbca" d="M 105.5,82.5 C 107.094,82.9195 108.594,83.5862 110,84.5C 111.138,84.0109 112.305,83.6775 113.5,83.5C 114.857,84.5903 115.857,85.9236 116.5,87.5C 116.5,88.1667 116.5,88.8333 116.5,89.5C 115.833,90.5 115.167,91.5 114.5,92.5C 113.925,90.7975 113.092,89.1309 112,87.5C 111.943,89.9102 110.776,91.2435 108.5,91.5C 109.141,90.5178 109.807,89.5178 110.5,88.5C 108.81,86.4807 107.144,84.4807 105.5,82.5 Z"/></g>
<g><path style="opacity:1" fill="#d1d1d1" d="M 62.5,85.5 C 64.1911,86.8637 65.8577,88.197 67.5,89.5C 65.7748,89.8425 65.2748,90.8425 66,92.5C 68.2745,92.9816 70.4411,94.1482 72.5,96C 71.552,96.4828 70.552,96.6495 69.5,96.5C 64.9391,95.0538 61.2724,92.3871 58.5,88.5C 59.4363,87.0256 60.7697,86.0256 62.5,85.5 Z"/></g>
<g><path style="opacity:1" fill="#d1d1d1" d="M 23.5,86.5 C 26.4323,87.7997 28.7656,89.7997 30.5,92.5C 29.7611,92.369 29.0944,92.5357 28.5,93C 28.5649,94.8288 28.8982,96.6621 29.5,98.5C 27.1667,96.5 24.8333,94.5 22.5,92.5C 22.4894,90.9826 21.8228,89.8159 20.5,89C 21.6906,88.3021 22.6906,87.4687 23.5,86.5 Z"/></g>
<g><path style="opacity:1" fill="#cecece" d="M 67.5,89.5 C 70.5121,91.5024 73.8455,92.669 77.5,93C 78.8281,95.2903 80.4947,96.1236 82.5,95.5C 82.5858,96.4959 82.2524,97.3292 81.5,98C 79.804,99.2051 78.1373,99.7051 76.5,99.5C 73.904,98.9451 71.5707,97.9451 69.5,96.5C 70.552,96.6495 71.552,96.4828 72.5,96C 70.4411,94.1482 68.2745,92.9816 66,92.5C 65.2748,90.8425 65.7748,89.8425 67.5,89.5 Z"/></g>
<g><path style="opacity:1" fill="#d1d1d1" d="M 51.5,86.5 C 52.5,86.5 53.5,86.5 54.5,86.5C 54.2627,87.791 54.596,88.791 55.5,89.5C 52.1799,93.8302 47.8466,96.6635 42.5,98C 41.2899,99.0391 40.2899,100.206 39.5,101.5C 39.631,102.239 39.4643,102.906 39,103.5C 37.5487,100.678 35.3821,99.1781 32.5,99C 33.5,100 34.5,101 35.5,102C 35.2716,102.399 34.9382,102.565 34.5,102.5C 32.8333,101.167 31.1667,99.8333 29.5,98.5C 28.8982,96.6621 28.5649,94.8288 28.5,93C 29.0944,92.5357 29.7611,92.369 30.5,92.5C 32.175,94.002 34.0083,95.3353 36,96.5C 39.2361,93.3851 43.0694,91.2184 47.5,90C 48.7051,88.6244 50.0384,87.4577 51.5,86.5 Z"/></g>
<g><path style="opacity:1" fill="#d3d3d3" d="M 84.5,93.5 C 86.5445,93.7996 88.5445,94.133 90.5,94.5C 88.1667,97.1667 85.8333,99.8333 83.5,102.5C 82.7321,103.263 82.2321,104.263 82,105.5C 80.887,104.24 80.7203,103.073 81.5,102C 80.0993,101.59 78.766,101.09 77.5,100.5C 76.8333,100.5 76.5,100.167 76.5,99.5C 78.1373,99.7051 79.804,99.2051 81.5,98C 82.2524,97.3292 82.5858,96.4959 82.5,95.5C 82.8333,94.5 83.5,93.8333 84.5,93.5 Z"/></g>
<g><path style="opacity:0.989" fill="#d0d0d0" d="M 114.5,92.5 C 111.5,95.8333 108.5,99.1667 105.5,102.5C 104.188,102.176 103.355,101.509 103,100.5C 101.739,100.759 100.739,101.426 100,102.5C 99.6012,102.272 99.4346,101.938 99.5,101.5C 102.5,98.1667 105.5,94.8333 108.5,91.5C 110.776,91.2435 111.943,89.9102 112,87.5C 113.092,89.1309 113.925,90.7975 114.5,92.5 Z"/></g>
<g><path style="opacity:1" fill="#d5d5d5" d="M 15.5,100.5 C 16.8333,101.5 18.1667,102.5 19.5,103.5C 17.6247,104.951 16.958,106.617 17.5,108.5C 13.8949,106.528 10.8949,103.861 8.5,100.5C 6.28981,97.124 7.28981,96.624 11.5,99C 10.8333,99.3333 10.1667,99.6667 9.5,100C 10.6667,100.5 11.5,101.333 12,102.5C 13.1127,101.695 14.2794,101.028 15.5,100.5 Z"/></g>
<g><path style="opacity:0.985" fill="#cccccc" d="M 105.5,102.5 C 101.833,106.833 97.8333,110.833 93.5,114.5C 93.631,113.761 93.4643,113.094 93,112.5C 90.8707,113.863 90.3707,113.529 91.5,111.5C 90.3984,110.824 89.3984,110.158 88.5,109.5C 89.552,109.649 90.552,109.483 91.5,109C 94.0362,106.295 96.7029,103.795 99.5,101.5C 99.4346,101.938 99.6012,102.272 100,102.5C 100.739,101.426 101.739,100.759 103,100.5C 103.355,101.509 104.188,102.176 105.5,102.5 Z"/></g>
<g><path style="opacity:1" fill="#d1d1d1" d="M 77.5,100.5 C 78.766,101.09 80.0993,101.59 81.5,102C 80.7203,103.073 80.887,104.24 82,105.5C 82.2321,104.263 82.7321,103.263 83.5,102.5C 83.3505,103.552 83.5172,104.552 84,105.5C 85.6667,106.733 87.1667,108.067 88.5,109.5C 89.3984,110.158 90.3984,110.824 91.5,111.5C 90.3707,113.529 90.8707,113.863 93,112.5C 93.4643,113.094 93.631,113.761 93.5,114.5C 90.786,115.863 88.1194,115.696 85.5,114C 83.6499,111.982 81.6499,110.149 79.5,108.5C 77.9447,106.057 77.278,103.39 77.5,100.5 Z"/></g>
<g><path style="opacity:1" fill="#d1d2d1" d="M 19.5,103.5 C 21.8333,105.5 24.1667,107.5 26.5,109.5C 27.9699,110.978 29.6366,112.311 31.5,113.5C 29.1916,113.553 26.8583,113.886 24.5,114.5C 21.5526,113.219 19.2193,111.219 17.5,108.5C 16.958,106.617 17.6247,104.951 19.5,103.5 Z"/></g>
<g><path style="opacity:0.996" fill="#cdcecd" d="M 39.5,101.5 C 40.7645,103.772 40.5978,106.105 39,108.5C 36.3602,111.529 33.5269,114.195 30.5,116.5C 29.1667,116.5 27.8333,116.5 26.5,116.5C 25.8333,115.833 25.1667,115.167 24.5,114.5C 26.8583,113.886 29.1916,113.553 31.5,113.5C 29.6366,112.311 27.9699,110.978 26.5,109.5C 27.8583,110.626 29.1916,110.626 30.5,109.5C 32.7337,107.619 34.067,105.285 34.5,102.5C 34.9382,102.565 35.2716,102.399 35.5,102C 34.5,101 33.5,100 32.5,99C 35.3821,99.1781 37.5487,100.678 39,103.5C 39.4643,102.906 39.631,102.239 39.5,101.5 Z"/></g>
</svg>
