<?xml version="1.0" encoding="UTF-8"?>
<svg version="1.1" xmlns="http://www.w3.org/2000/svg" width="707" height="615">
<path d="M0 0 C2.875 1.25 2.875 1.25 5 3 C6.175625 3.8353125 6.175625 3.8353125 7.375 4.6875 C9.53771713 6.5927508 11.27597428 8.42457998 13.13085938 10.60742188 C17.06768233 15.14340458 21.26238252 19.37203715 25.53125 23.59375 C26.32599731 24.38471069 27.12074463 25.17567139 27.9395752 25.99060059 C30.45728432 28.49619523 32.97821446 30.99850858 35.5 33.5 C38.82588189 36.7991168 42.14832336 40.10164374 45.46875 43.40625 C46.59561218 44.52066467 46.59561218 44.52066467 47.74523926 45.65759277 C51.88281297 49.7761218 55.8148885 53.98568115 59.57336426 58.45446777 C60.93923458 60.11707361 60.93923458 60.11707361 63 61 C63 61.66 63 62.32 63 63 C63.5458374 63.22276611 64.0916748 63.44553223 64.65405273 63.67504883 C67.72622113 65.41015736 70.0544517 67.72967001 72.53515625 70.19921875 C73.05508652 70.71249222 73.57501678 71.22576569 74.11070251 71.7545929 C75.20671763 72.84050554 76.30005454 73.92912715 77.39086914 75.02026367 C79.05005186 76.67508458 80.72453877 78.3132564 82.40039062 79.95117188 C83.46712602 81.01203613 84.53291269 82.07385539 85.59765625 83.13671875 C86.09459488 83.61928635 86.59153351 84.10185394 87.10353088 84.5990448 C91.02062375 88.56771002 93.71673847 92.781119 94.21484375 98.44140625 C93.54104043 103.59457815 92.32210458 106.84736927 89 111 C88.21625 112.010625 87.4325 113.02125 86.625 114.0625 C83.9518725 117.05385696 81.07750086 119.43541595 78 122 C76.79885923 123.45401251 75.59816863 124.90862633 74.421875 126.3828125 C70.61294207 130.7149505 65.17080901 136.46918308 59.36328125 137.44140625 C53.43842519 137.67657979 49.80945369 137.5374411 45.25 133.5 C44.13787288 132.36074783 43.04316968 131.20271328 42 130 C38.44253392 134.14628805 35.81338442 138.55213069 33.1875 143.3125 C32.75099121 144.09995605 32.31448242 144.88741211 31.86474609 145.69873047 C27.30990604 154.05066451 23.610835 162.7142916 19.96484375 171.4921875 C17.34652691 177.31822584 12.79919456 183.10040272 7 186 C6.34786708 188.02463255 6.34786708 188.02463255 6 190 C6.59240479 190.27150879 7.18480957 190.54301758 7.79516602 190.82275391 C18.17419684 196.36451967 25.57249179 207.10489945 29 218 C32.61542162 227.71562393 37.51527254 236.25311437 43 245 C46.32944692 244.28898875 47.65209583 243.44998696 50 241 C54.75145191 239.4161827 59.5110941 238.76591394 64.1394043 241.06079102 C69.9088902 244.98388214 74.81545029 249.39212114 79.6875 254.375 C80.40744141 255.09171875 81.12738281 255.8084375 81.86914062 256.546875 C94.65049145 269.45638887 94.65049145 269.45638887 95.25 277.25 C94.69236233 285.61456506 90.52344563 290.04752888 84.77807617 295.66015625 C84.04600449 296.39120575 83.3139328 297.12225525 82.55967712 297.87545776 C80.14666102 300.2806146 77.71990426 302.67139643 75.29296875 305.0625 C73.60674555 306.7387137 71.92148222 308.41589351 70.23713684 310.09399414 C65.80437172 314.50584734 61.3601756 318.90599828 56.9130249 323.30334473 C49.80308531 330.33797357 42.71165515 337.39127289 35.61828041 344.44259644 C33.14535538 346.89789763 30.66821815 349.3488809 28.19023132 351.79907227 C26.66346815 353.31260708 25.13675743 354.8261948 23.61010742 356.33984375 C22.58355042 357.35158157 22.58355042 357.35158157 21.53625488 358.38375854 C17.92565654 361.96963122 14.50374678 365.63344406 11.24904346 369.54655457 C7.68798573 373.69036802 3.68510004 376.52698946 -1.5625 378 C-10.46700519 378 -14.91337521 373.95687117 -21 368 C-21.58265625 367.46246094 -22.1653125 366.92492187 -22.765625 366.37109375 C-24 365 -24 365 -24 363 C-24.54527344 362.77957031 -25.09054687 362.55914062 -25.65234375 362.33203125 C-28.75376604 360.57232243 -31.08257773 358.20758295 -33.5625 355.6875 C-34.04396484 355.21376953 -34.52542969 354.74003906 -35.02148438 354.25195312 C-39.96576301 349.28047076 -42.75855285 345.12269088 -43 338 C-41.74797965 332.23176337 -38.95472244 328.27537561 -35 324 C-36.0003125 323.43023437 -37.000625 322.86046875 -38.03125 322.2734375 C-40.58340467 320.81671067 -43.12367778 319.34203017 -45.65625 317.8515625 C-53.48417242 313.29236493 -61.25361484 309.50611495 -69.7109375 306.265625 C-76.21668914 303.76222413 -81.24273845 301.24518581 -86 296 C-87.26550496 294.72386054 -88.53657321 293.45321938 -89.8125 292.1875 C-90.875 291.125 -91.9375 290.0625 -93 289 C-96.88470066 290.71333959 -99.16920323 293.07776841 -102.0234375 296.1484375 C-106.53215958 300.372023 -111.18457818 302.5779538 -117 304.5 C-124.26225398 307.05002462 -130.94198927 310.43304939 -137.6875 314.125 C-138.63173828 314.63998047 -139.57597656 315.15496094 -140.54882812 315.68554688 C-144.9992111 318.16225389 -149.15690545 320.6180768 -153 324 C-152.236875 324.53625 -151.47375 325.0725 -150.6875 325.625 C-147.27617926 328.63965553 -145.38390595 331.37050722 -144.71484375 335.953125 C-144.4725518 341.47316758 -145.80140174 345.49110163 -149.53955078 349.75683594 C-151.40867034 351.66830792 -153.31752615 353.52764059 -155.25 355.375 C-160.00338466 360.00459564 -164.62113608 364.61038083 -168.80078125 369.77734375 C-169.19652344 370.18082031 -169.59226562 370.58429688 -170 371 C-170.66 371 -171.32 371 -172 371 C-172.33 371.99 -172.66 372.98 -173 374 C-174.75 375.01953125 -174.75 375.01953125 -177 375.8125 C-177.721875 376.08707031 -178.44375 376.36164063 -179.1875 376.64453125 C-183.58520456 377.20035224 -186.93445693 376.8551852 -191 375 C-194.99368413 371.8131911 -198.4561931 368.16351495 -201.9375 364.4375 C-202.88953753 363.44169436 -203.84330239 362.44753713 -204.79882812 361.45507812 C-206.53787453 359.64881017 -208.26856055 357.83442879 -209.98803711 356.00952148 C-211.83978132 353.94858777 -211.83978132 353.94858777 -214 353 C-214 352.34 -214 351.68 -214 351 C-214.58136719 350.74476563 -215.16273438 350.48953125 -215.76171875 350.2265625 C-218.22815481 348.87497276 -219.84842854 347.38307306 -221.8125 345.375 C-222.75029297 344.42753906 -222.75029297 344.42753906 -223.70703125 343.4609375 C-225.57083654 341.46060133 -227.35567717 339.42891811 -229.13574219 337.35546875 C-232.94762546 332.99247467 -236.99271992 328.9132165 -241.12109375 324.8515625 C-242.64791354 323.33736771 -244.17460261 321.8230411 -245.70117188 320.30859375 C-248.084976 317.94976775 -250.47036703 315.59258711 -252.8581543 313.23779297 C-255.17927571 310.94668707 -257.49429207 308.64955394 -259.80859375 306.3515625 C-260.89121742 305.28912827 -260.89121742 305.28912827 -261.99571228 304.20523071 C-262.65382401 303.55049774 -263.31193573 302.89576477 -263.98999023 302.22119141 C-264.57288315 301.64575592 -265.15577606 301.07032043 -265.7563324 300.47744751 C-267 299 -267 299 -267 297 C-267.84691406 296.64228516 -267.84691406 296.64228516 -268.7109375 296.27734375 C-271.49285152 294.72497876 -273.39483332 292.83368981 -275.625 290.5625 C-276.40101563 289.78003906 -277.17703125 288.99757813 -277.9765625 288.19140625 C-281.73633881 284.11952496 -283.08112119 280.50610053 -283 275 C-281.47782707 270.27325249 -279.40369465 266.62328785 -276 263 C-275.34 263 -274.68 263 -274 263 C-274 262.34 -274 261.68 -274 261 C-272.56640625 259.625 -272.56640625 259.625 -270.5625 258 C-266.34961059 254.43697119 -262.77268326 250.50759392 -259.17578125 246.33203125 C-255.58351222 242.48178958 -252.33923396 239.32516885 -246.9140625 238.796875 C-242.06691922 238.69761609 -238.95833515 238.8813117 -235 242 C-234.01 242.99 -234.01 242.99 -233 244 C-232.01 244 -231.02 244 -230 244 C-223.9878267 233.79901743 -218.74949476 223.65927968 -214.6015625 212.55175781 C-211.64655475 204.69815888 -211.64655475 204.69815888 -209 202 C-208.34 202 -207.68 202 -207 202 C-207 201.34 -207 200.68 -207 200 C-206.34 200 -205.68 200 -205 200 C-205 199.34 -205 198.68 -205 198 C-203.35546875 196.44921875 -203.35546875 196.44921875 -201.1875 194.6875 C-198.06609608 192.04673704 -195.80988139 189.73288036 -194 186 C-194.5878125 185.73445312 -195.175625 185.46890625 -195.78125 185.1953125 C-198.06564127 183.96463692 -199.64853426 182.68438697 -201.5 180.875 C-202.0671875 180.33617187 -202.634375 179.79734375 -203.21875 179.2421875 C-207.09105526 174.36783833 -209.30244148 168.39415782 -211.73974609 162.70776367 C-215.07578179 154.93657079 -218.75621781 147.51401873 -223.0300293 140.21484375 C-224.97769374 136.88373834 -226.68555727 133.6320128 -228 130 C-228.47308594 130.48210937 -228.94617188 130.96421875 -229.43359375 131.4609375 C-234.1135986 135.93111757 -238.32818506 139.01099146 -245 139 C-251.68162848 137.9205388 -254.9618933 134.71714738 -259.4375 130 C-260.07365234 129.35804688 -260.70980469 128.71609375 -261.36523438 128.0546875 C-266 123.29546523 -266 123.29546523 -266 121 C-266.55300781 120.7834375 -267.10601562 120.566875 -267.67578125 120.34375 C-270.79863557 118.53826784 -272.79257625 116.18854069 -275.1875 113.5 C-276.06792969 112.5203125 -276.94835937 111.540625 -277.85546875 110.53125 C-280.80740856 107.04699318 -281.1957642 105.2474002 -281.3125 100.75 C-281.34988281 99.81671875 -281.38726562 98.8834375 -281.42578125 97.921875 C-280.41946325 91.01613312 -274.41533491 86.12122418 -269.6796875 81.4140625 C-268.9798172 80.71227875 -268.2799469 80.010495 -267.55886841 79.28744507 C-266.08711251 77.81433421 -264.61285206 76.34372181 -263.13623047 74.87548828 C-260.86840676 72.61843808 -258.61152817 70.350834 -256.35546875 68.08203125 C-254.92251642 66.65039937 -253.48894442 65.2193874 -252.0546875 63.7890625 C-251.37759735 63.10792389 -250.7005072 62.42678528 -250.00289917 61.7250061 C-249.06149582 60.79305923 -249.06149582 60.79305923 -248.10107422 59.84228516 C-247.5491037 59.29190582 -246.99713318 58.74152649 -246.42843628 58.17446899 C-245 57 -245 57 -243 57 C-242.67 56.01 -242.34 55.02 -242 54 C-240.64453125 52.703125 -240.64453125 52.703125 -238.8125 51.25 C-235.02709927 48.02978063 -231.65598047 44.54133113 -228.3125 40.875 C-221.35669352 33.30770516 -214.16118932 25.97977092 -206.92001343 18.68682861 C-205.60168648 17.35731994 -204.28609468 16.02509336 -202.97329712 14.69012451 C-201.10296125 12.78972824 -199.22281869 10.89958252 -197.33984375 9.01171875 C-196.77568756 8.43525101 -196.21153137 7.85878326 -195.63027954 7.2648468 C-191.43213364 3.08995244 -187.71737907 0.73497074 -181.625 0.625 C-175.63791174 0.76446628 -172.04931814 3.21341495 -167.5625 7.125 C-166 9 -166 9 -166 11 C-165.34 11 -164.68 11 -164 11 C-162.66015625 12.36328125 -162.66015625 12.36328125 -161.0625 14.3125 C-157.12050071 18.98634726 -152.77538622 23.17408016 -148.35546875 27.38671875 C-145.10883724 30.98870296 -144.12262807 33.65109124 -143.6875 38.4375 C-144.16251334 43.85265207 -146.121897 47.30656857 -150 51 C-150 51.66 -150 52.32 -150 53 C-148.40512308 54.24628595 -148.40512308 54.24628595 -146.30078125 55.42578125 C-145.50969971 55.89048828 -144.71861816 56.35519531 -143.90356445 56.83398438 C-143.04851318 57.32189453 -142.19346191 57.80980469 -141.3125 58.3125 C-140.44778076 58.80943359 -139.58306152 59.30636719 -138.69213867 59.81835938 C-131.27471369 63.99982855 -123.85382808 67.18191688 -115.7109375 69.7109375 C-106.72242396 72.66083577 -100.89023745 79.91330807 -95 87 C-91.93286756 85.63757574 -89.88159707 84.10300295 -87.5625 81.6875 C-86.95664062 81.06617188 -86.35078125 80.44484375 -85.7265625 79.8046875 C-84.29536745 78.3087325 -82.86617272 76.81086407 -81.4375 75.3125 C-76.66545775 70.78517786 -71.60151946 68.28719886 -65.4375 66.1875 C-55.7100549 62.70906482 -46.29707163 58.22895882 -38 52 C-37.65766227 48.89278939 -37.65766227 48.89278939 -39.9375 46.9375 C-40.618125 46.298125 -41.29875 45.65875 -42 45 C-43.24189432 42.51621136 -43.30994662 40.65025227 -43.4375 37.875 C-43.49808594 36.96492188 -43.55867187 36.05484375 -43.62109375 35.1171875 C-41.89062116 26.4321741 -33.02032898 19.71720843 -27 13.75 C-26.1234375 12.86570313 -25.246875 11.98140625 -24.34375 11.0703125 C-16.45994495 3.21025385 -11.61914826 -1.47685958 0 0 Z M-13.51953125 16.85546875 C-14.02296555 17.35411942 -14.52639984 17.85277008 -15.04508972 18.36653137 C-16.10416899 19.42221421 -17.15698419 20.48421378 -18.20385742 21.55200195 C-19.80728067 23.18219354 -21.43561541 24.78400248 -23.06835938 26.38476562 C-24.09535696 27.41506735 -25.12080238 28.44691909 -26.14453125 29.48046875 C-26.87564873 30.1964045 -26.87564873 30.1964045 -27.62153625 30.92680359 C-29.76054999 33.14168865 -30.93170393 34.59700893 -31.45214844 37.66796875 C-30.73441303 41.36980923 -28.11141113 43.3632906 -25.4375 45.8125 C-24.3157763 46.88209205 -23.19597247 47.95370125 -22.078125 49.02734375 C-21.53865234 49.54151855 -20.99917969 50.05569336 -20.44335938 50.58544922 C-18.73682645 52.25792076 -17.2029057 54.0285978 -15.6875 55.875 C-12.12024235 60.04376245 -8.08802144 63.66578564 -4.04492188 67.359375 C0.87644148 71.90726314 5.63317746 76.6029205 10.35546875 81.35546875 C11.3309668 82.33663918 11.3309668 82.33663918 12.32617188 83.33763123 C15.64905322 86.68339258 18.96405385 90.03666476 22.27197266 93.3972168 C23.51061777 94.64774694 24.74938218 95.89815895 25.98828125 97.1484375 C26.56474899 97.73840012 27.14121674 98.32836273 27.7351532 98.936203 C29.11931282 100.32905314 30.55513421 101.67022851 32 103 C32.66 103 33.32 103 34 103 C34.66 104.32 35.32 105.64 36 107 C36.66 107 37.32 107 38 107 C38.2671582 107.5880542 38.53431641 108.1761084 38.80957031 108.78198242 C40.81569849 112.51981559 43.80417865 115.29668496 46.75 118.3125 C47.3584375 118.97056641 47.966875 119.62863281 48.59375 120.30664062 C52.23480007 124.15263523 52.23480007 124.15263523 57.26953125 125.11328125 C60.09966172 123.95936539 61.14064478 123.28122351 62.9375 120.875 C65.39092686 117.79564191 67.96846865 115.01904944 70.81640625 112.30859375 C71.50162354 111.65197754 72.18684082 110.99536133 72.89282227 110.31884766 C74.28759012 108.99082052 75.69296615 107.67383853 77.10913086 106.36865234 C77.75374268 105.74812988 78.39835449 105.12760742 79.0625 104.48828125 C79.65160156 103.93696533 80.24070312 103.38564941 80.84765625 102.81762695 C82.2167179 101.02116263 82.2167179 101.02116263 81.98168945 98.60229492 C80.69292326 95.18599081 78.84986783 93.41410463 76.23046875 90.875 C75.7530574 90.40562012 75.27564606 89.93624023 74.7837677 89.45263672 C73.26087983 87.95864312 71.72500377 86.47893449 70.1875 85 C68.66335443 83.51858748 67.14212259 82.03430108 65.62336731 80.54736328 C64.24007098 79.19546562 62.84911886 77.85141466 61.45776367 76.5078125 C59 74 59 74 57.17700195 71.6171875 C55.34597112 69.41592581 53.6342109 67.75512345 51.47143555 65.91381836 C46.3824768 61.55620171 41.73174348 56.7817042 37.04718971 52.00009346 C34.8632167 49.7735046 32.66942228 47.55669574 30.47627544 45.33914852 C26.40934234 41.22669988 22.34666048 37.11023847 18.30004883 32.9777832 C15.46814924 30.08656542 12.62424758 27.20764939 9.77197838 24.33653069 C8.69135536 23.24416996 7.615281 22.1472897 6.54392433 21.04583931 C5.05078863 19.51177132 3.54284695 17.99387542 2.03051758 16.47875977 C1.17750565 15.61162857 0.32449371 14.74449738 -0.55436707 13.85108948 C-2.85063162 11.80829955 -2.85063162 11.80829955 -5.64697266 11.59307861 C-9.1750269 12.20320358 -11.10489585 14.38962994 -13.51953125 16.85546875 Z M-186.25854492 15.00634766 C-187.17546622 16.00138134 -188.08890336 16.99963027 -189 18 C-190.2126175 19.22833697 -191.43095367 20.45104294 -192.65356445 21.66943359 C-193.32809158 22.34718842 -194.00261871 23.02494324 -194.69758606 23.72323608 C-197.76033271 26.79942653 -200.82578039 29.87291951 -203.89135742 32.94628906 C-205.50098521 34.56094845 -207.1097147 36.17650385 -208.7175293 37.79296875 C-211.05537556 40.14303498 -213.39651664 42.48977652 -215.73828125 44.8359375 C-216.44688797 45.54970551 -217.15549469 46.26347351 -217.88557434 46.99887085 C-221.87468018 50.9884172 -225.95845478 54.79371426 -230.25320435 58.45326233 C-232.91627473 60.81133511 -235.20602082 63.39697437 -237.5625 66.0625 C-240.60417333 69.46921651 -243.6555897 72.71510629 -247.1875 75.625 C-248.115625 76.40875 -249.04375 77.1925 -250 78 C-250 78.66 -250 79.32 -250 80 C-250.5775 80.2475 -251.155 80.495 -251.75 80.75 C-254.32939979 82.18299988 -256.06121592 83.78424676 -258 86 C-258 86.66 -258 87.32 -258 88 C-258.57234375 88.24492187 -259.1446875 88.48984375 -259.734375 88.7421875 C-262.38024402 90.21110099 -264.14853139 91.95348244 -266.25 94.125 C-267.30960938 95.21167969 -267.30960938 95.21167969 -268.390625 96.3203125 C-268.92171875 96.87460938 -269.4528125 97.42890625 -270 98 C-268.71055606 104.56160585 -264.376895 108.11057162 -259.75 112.5625 C-258.99847656 113.30435547 -258.24695313 114.04621094 -257.47265625 114.81054688 C-255.33937065 116.90101784 -253.1769017 118.95511079 -251 121 C-250.43603516 121.55284668 -249.87207031 122.10569336 -249.29101562 122.67529297 C-247.06706547 124.73764367 -245.60360761 125.95129116 -242.53125 126.19921875 C-238.79776233 124.43042135 -236.32356466 121.78346652 -233.5 118.8125 C-232.94441406 118.24724609 -232.38882813 117.68199219 -231.81640625 117.09960938 C-229.17143835 114.38307175 -226.64279402 111.61549366 -224.23828125 108.68359375 C-222.27526313 106.33002752 -220.43304901 104.80225853 -218 103 C-218 102.34 -218 101.68 -218 101 C-217.01 100.67 -216.02 100.34 -215 100 C-215 99.34 -215 98.68 -215 98 C-214.34 98 -213.68 98 -213 98 C-213 97.34 -213 96.68 -213 96 C-212.34 96 -211.68 96 -211 96 C-211 95.34 -211 94.68 -211 94 C-210.34 94 -209.68 94 -209 94 C-207.27023845 92.37668532 -205.64065127 90.71147075 -204 89 C-202.55485977 87.54931221 -201.10661868 86.10171049 -199.65625 84.65625 C-198.83189453 83.83189453 -198.00753906 83.00753906 -197.15820312 82.15820312 C-183.43880208 68.43880208 -169.71940104 54.71940104 -156 41 C-155.63881621 37.99129168 -155.59835512 36.53349697 -157.44946289 34.07470703 C-158.1171167 33.47513184 -158.78477051 32.87555664 -159.47265625 32.2578125 C-160.57577148 31.24654297 -160.57577148 31.24654297 -161.70117188 30.21484375 C-162.8700293 29.18037109 -162.8700293 29.18037109 -164.0625 28.125 C-165.57515184 26.75363269 -167.08687983 25.38124561 -168.59765625 24.0078125 C-169.33902832 23.34426758 -170.08040039 22.68072266 -170.84423828 21.99707031 C-173.49901513 19.53771871 -175.96207169 16.92574983 -178.39233398 14.24560547 C-181.46334399 11.86621397 -183.55914791 12.60837504 -186.25854492 15.00634766 Z M-34.4375 62.9375 C-39.91081417 66.87176454 -45.5871432 69.95649186 -51.6875 72.8125 C-52.51338623 73.20026611 -53.33927246 73.58803223 -54.19018555 73.98754883 C-58.16788707 75.81680415 -62.05082145 77.37015366 -66.25 78.625 C-69.73362679 80.1681708 -72.21772765 81.90363202 -74.9296875 84.5703125 C-75.6215918 85.24884277 -76.31349609 85.92737305 -77.02636719 86.62646484 C-80.06838171 89.70457586 -83.05089632 92.83306556 -86 96 C-80.69603066 102.42716944 -74.86881185 108.29495788 -68.984375 114.18359375 C-67.92149783 115.24968917 -66.85869389 116.31585761 -65.79595947 117.38209534 C-63.58220966 119.60179701 -61.36643946 121.81945889 -59.14941406 124.03588867 C-56.30395693 126.88124339 -53.46548762 129.73346336 -50.62865829 132.58741665 C-48.44282713 134.78432981 -46.25250326 136.97672 -44.06085968 139.16783333 C-43.01143086 140.21844422 -41.96362784 141.27068166 -40.91747284 142.32455254 C-39.46235315 143.78941261 -38.00110433 145.24786868 -36.53808594 146.70483398 C-35.29282135 147.9522361 -35.29282135 147.9522361 -34.0223999 149.22483826 C-32.19797724 151.21989147 -32.19797724 151.21989147 -30 151 C-29.33333333 152.33333333 -28.66666667 153.66666667 -28 155 C-27.46375 155.825 -26.9275 156.65 -26.375 157.5 C-24.34107942 162.67725238 -24.34276537 167.50793587 -25 173 C-27.47436669 178.67042367 -31.75629315 181.1235977 -37 184 C-36.43732422 184.65355469 -36.43732422 184.65355469 -35.86328125 185.3203125 C-34.79500289 186.5634979 -33.72871134 187.80839242 -32.6640625 189.0546875 C-31.62225146 190.27257928 -30.57605659 191.48674984 -29.5234375 192.6953125 C-27.4296205 195.13197673 -26.02716804 196.91849589 -25 200 C-21.84788143 200.3356849 -21.84788143 200.3356849 -19.67578125 197.89453125 C-18.35126953 196.46173828 -18.35126953 196.46173828 -17 195 C-16.53899902 194.50419434 -16.07799805 194.00838867 -15.60302734 193.49755859 C-14.12343195 191.90116628 -12.65498438 190.29502689 -11.1875 188.6875 C-5.75218438 182.76505309 -0.27058919 176.89893133 5.75 171.5625 C7.77130009 169.26046378 8.62705318 167.84328499 9.78515625 165.1015625 C16.40203218 149.80215178 23.33880758 134.63789536 33 121 C32.63648438 120.57589844 32.27296875 120.15179688 31.8984375 119.71484375 C31.39570313 119.12832031 30.89296875 118.54179687 30.375 117.9375 C29.8284375 117.30070312 29.281875 116.66390625 28.71875 116.0078125 C27.61111749 114.71389634 26.50669448 113.4172224 25.40625 112.1171875 C21.41083777 107.36108069 21.41083777 107.36108069 17 103 C16.34 103 15.68 103 15 103 C15 102.34 15 101.68 15 101 C13.55245835 99.53116587 13.55245835 99.53116587 11.62890625 97.99609375 C6.4693815 93.60657951 1.71450833 88.86110746 -3.0625 84.0625 C-3.92166016 83.20720703 -4.78082031 82.35191406 -5.66601562 81.47070312 C-10.12641908 77.00348469 -14.43507596 72.46884112 -18.55004883 67.68139648 C-20.24038271 65.72124672 -21.99304738 63.84075768 -23.8125 62 C-24.37582031 61.4225 -24.93914062 60.845 -25.51953125 60.25 C-28.96098345 57.34428838 -31.43268241 60.69824104 -34.4375 62.9375 Z M-162.55224609 62.20581055 C-163.03773926 62.76051025 -163.52323242 63.31520996 -164.0234375 63.88671875 C-164.84328125 64.8003418 -164.84328125 64.8003418 -165.6796875 65.73242188 C-166.23914063 66.37759766 -166.79859375 67.02277344 -167.375 67.6875 C-171.35977415 72.2076118 -175.32324269 76.19934682 -180 80 C-181.68728283 81.64579227 -183.3518845 83.31498639 -185 85 C-186.2458235 86.23726231 -187.49336919 87.47279179 -188.7421875 88.70703125 C-190.11984395 90.0754682 -191.49744694 91.44395897 -192.875 92.8125 C-193.55691406 93.48603516 -194.23882812 94.15957031 -194.94140625 94.85351562 C-198.93112408 98.8242348 -202.717555 102.90036597 -206.39257812 107.16333008 C-208.60619177 109.69264591 -210.93187874 112.06428347 -213.3125 114.4375 C-214.57513672 115.70400391 -214.57513672 115.70400391 -215.86328125 116.99609375 C-218 119 -218 119 -220 120 C-219.41957238 124.218465 -216.90104716 127.19219412 -214.5 130.5625 C-210.49962941 136.373252 -207.14140225 142.31093319 -204.125 148.6875 C-203.59036133 149.80717163 -203.59036133 149.80717163 -203.04492188 150.94946289 C-201.56338942 154.16328624 -200.19367135 157.25988545 -199.29545593 160.69241333 C-196.90014557 169.7028926 -192.12776399 175.02492295 -185.57421875 181.41796875 C-184.54163791 182.45086035 -183.51039653 183.48509256 -182.48042297 184.52058411 C-180.3334384 186.67031693 -178.17336873 188.80561317 -176.00219727 190.9309082 C-173.22749462 193.64855439 -170.48535998 196.39655265 -167.75178814 199.15549755 C-165.63279516 201.28842261 -163.49928467 203.40632142 -161.36094093 205.5198307 C-160.34380575 206.52797473 -159.33076635 207.54026945 -158.32205772 208.55684471 C-156.91126779 209.97348384 -155.47883493 211.36846841 -154.0456543 212.76245117 C-153.23831345 213.55898605 -152.4309726 214.35552094 -151.59916687 215.17619324 C-148.34037252 217.46285334 -145.95238866 217.86615941 -142 218 C-139.07139596 216.20954506 -139.07139596 216.20954506 -137 214 C-138.54735464 210.24213873 -140.85388387 207.99743641 -143.7890625 205.2265625 C-144.73007812 204.3190625 -145.67109375 203.4115625 -146.640625 202.4765625 C-148.13335223 201.0457864 -149.6301121 199.62020143 -151.13769531 198.20507812 C-152.59725723 196.83036338 -154.03720764 195.43492038 -155.4765625 194.0390625 C-156.34361816 193.21615723 -157.21067383 192.39325195 -158.10400391 191.54541016 C-160.41237478 188.44637916 -160.47495436 186.78015302 -160 183 C-159 182 -159 182 -156.05078125 181.34375 C-151.95947376 181.4022719 -150.09032732 183.38485243 -147.23046875 186.15625 C-145.53142356 187.92028599 -143.85091923 189.70233095 -142.1875 191.5 C-140.49758673 193.28513753 -138.8037814 195.06660144 -137.10546875 196.84375 C-135.99401489 198.03774414 -135.99401489 198.03774414 -134.86010742 199.25585938 C-133.18182436 201.22800055 -133.18182436 201.22800055 -131 201 C-130.34 202.32 -129.68 203.64 -129 205 C-128.34 205 -127.68 205 -127 205 C-126.7421875 205.58265625 -126.484375 206.1653125 -126.21875 206.765625 C-124.90165983 209.1802903 -123.44911616 210.81740177 -121.5 212.75 C-120.8915625 213.36359375 -120.283125 213.9771875 -119.65625 214.609375 C-118.10515723 216.21434088 -118.10515723 216.21434088 -116 216 C-115.74476563 216.59296875 -115.48953125 217.1859375 -115.2265625 217.796875 C-113.87376259 220.2267449 -112.51658724 221.49236266 -110.375 223.25 C-104.58931311 228.15684837 -99.3059897 233.42203512 -94.375 239.1875 C-88.99748306 245.63131044 -88.99748306 245.63131044 -81.375 248.5625 C-77.99891086 248.22145869 -77.99891086 248.22145869 -75.5 246.4375 C-73.69314214 244.00354034 -73.69314214 244.00354034 -74.109375 240.66796875 C-75.15748977 236.3513908 -76.51349965 234.85296334 -79.75 231.875 C-80.61109375 231.06804687 -81.4721875 230.26109375 -82.359375 229.4296875 C-83.23078125 228.62789062 -84.1021875 227.82609375 -85 227 C-86.67073445 225.33741106 -88.33666333 223.66999002 -90 222 C-91.03898016 220.96516571 -92.0785627 219.93093596 -93.11865234 218.8972168 C-96.20913737 215.8246202 -99.29649735 212.74890392 -102.3828125 209.67211914 C-103.7064551 208.35350508 -105.03099387 207.03578997 -106.35644531 205.71899414 C-119.17332171 192.9833784 -119.17332171 192.9833784 -124.64794922 186.51928711 C-126.52903507 184.40552812 -128.65574769 182.68448928 -130.875 180.9375 C-133.73190662 178.4783291 -135.51955898 176.92558712 -136.0625 173.125 C-136.041875 172.09375 -136.02125 171.0625 -136 170 C-136 169.34 -136 168.68 -136 168 C-132.07277261 167.69198217 -129.74368312 167.52191799 -126.375 169.6875 C-121.86378502 174.0799988 -117.44572401 178.56563246 -113.01977539 183.04370117 C-107.16558525 188.96315895 -101.30129203 194.87249981 -95.43113041 200.77611828 C-91.88633099 204.34184578 -88.34539059 207.91124236 -84.81274414 211.48901367 C-81.38576343 214.95947092 -77.94908752 218.42004958 -74.50549126 221.87401772 C-73.19786926 223.18901692 -71.89376652 224.50752555 -70.5933094 225.82961082 C-68.77463724 227.67734765 -66.94379871 229.51215622 -65.10961914 231.34448242 C-64.57800171 231.89048096 -64.04638428 232.43647949 -63.49865723 232.99902344 C-60.22952545 236.23262082 -57.5057893 238.00634442 -53 239 C-50.19418437 238.67778312 -50.19418437 238.67778312 -48 237 C-46.22544336 234.34473236 -46.22544336 234.34473236 -46 231 C-49.12263582 223.88075449 -54.64766896 218.94298997 -60.125 213.5625 C-61.04410156 212.64017578 -61.96320313 211.71785156 -62.91015625 210.76757812 C-66.82946245 206.09691512 -66.82946245 206.09691512 -72 204 C-72.26101501 203.41399521 -72.52203003 202.82799042 -72.79095459 202.22422791 C-74.07479176 199.86240888 -75.44534593 198.30721729 -77.34472656 196.41235352 C-78.02593567 195.72806778 -78.70714478 195.04378204 -79.40899658 194.33876038 C-80.14543396 193.60950851 -80.88187134 192.88025665 -81.640625 192.12890625 C-82.40042664 191.36956284 -83.16022827 190.61021942 -83.9430542 189.8278656 C-85.55130575 188.22263367 -87.16198558 186.61983143 -88.77490234 185.01928711 C-91.23197498 182.58039167 -93.68103035 180.13366919 -96.12890625 177.68554688 C-97.69484298 176.12452886 -99.26123465 174.56396705 -100.828125 173.00390625 C-101.55646545 172.27667862 -102.28480591 171.54945099 -103.03521729 170.80018616 C-106.07729001 167.78608616 -109.08589549 164.87609082 -112.45605469 162.23022461 C-115 160 -115 160 -115.875 156.3125 C-115.94179485 154.54243637 -116 152.77132346 -116 151 C-110.23828125 150.51171875 -110.23828125 150.51171875 -108 151 C-106.29271463 152.625033 -104.63307025 154.3004009 -103 156 C-102.11697708 156.88524353 -101.23395416 157.77048706 -100.32417297 158.68255615 C-99.35452077 159.65521054 -98.38489204 160.62788832 -97.4152832 161.60058594 C-92.00554946 167.02659347 -86.59332399 172.45010825 -81.17963886 177.87217331 C-77.91002457 181.14703017 -74.64136232 184.42282626 -71.37475586 187.70068359 C-68.20703917 190.87923653 -65.03691133 194.05536592 -61.86507225 197.22980499 C-60.65729988 198.43942735 -59.45040909 199.6499306 -58.24440956 200.8613205 C-56.56408831 202.54886382 -54.88070129 204.23328926 -53.1965332 205.91699219 C-52.69728836 206.41983231 -52.19804352 206.92267242 -51.68367004 207.44075012 C-48.54636386 210.56864604 -47.11623643 211.89664478 -42.625 212.3125 C-39.024695 212.27919381 -39.024695 212.27919381 -36.5 210.4375 C-34.71266662 208.01567123 -34.71266662 208.01567123 -35.0234375 204.75 C-36.28753107 199.89588068 -38.49440053 197.85645116 -42.125 194.5625 C-43.32998524 193.4186231 -44.53312888 192.27280292 -45.734375 191.125 C-46.59579102 190.31095703 -46.59579102 190.31095703 -47.47460938 189.48046875 C-49.23715751 187.76982665 -50.81926192 185.96213808 -52.375 184.0625 C-55.38279421 180.53908393 -58.71342815 177.43584309 -62.125 174.3125 C-69.71035888 167.33798132 -77.05680239 160.12464365 -84.36810303 152.86508179 C-85.70445512 151.53992659 -87.043525 150.21750646 -88.38531494 148.89785767 C-90.29307987 147.0200794 -92.19066493 145.13256358 -94.0859375 143.2421875 C-94.66756653 142.67287003 -95.24919556 142.10355255 -95.84844971 141.51698303 C-98.59084323 138.75931827 -100.38100214 136.86261645 -101 133 C-100.5625 130.75 -100.5625 130.75 -100 129 C-97.092647 128.08626048 -95.58346874 127.72639493 -92.77636719 129.04272461 C-89.04722354 131.67168562 -85.96812235 134.76595974 -82.765625 138.00390625 C-81.74767853 139.02254005 -81.74767853 139.02254005 -80.70916748 140.06175232 C-79.28143667 141.492495 -77.85612779 142.92565814 -76.43310547 144.36108398 C-74.24891724 146.56359185 -72.05676919 148.75792935 -69.86328125 150.95117188 C-68.47608851 152.34327785 -67.08935361 153.73584022 -65.703125 155.12890625 C-65.0458844 155.78725967 -64.3886438 156.4456131 -63.71148682 157.12391663 C-63.1070575 157.7347258 -62.50262817 158.34553497 -61.87988281 158.97485352 C-61.34647278 159.51207535 -60.81306274 160.04929718 -60.26348877 160.60279846 C-59 162 -59 162 -58 164 C-57.34 164 -56.68 164 -56 164 C-55.74734375 164.58265625 -55.4946875 165.1653125 -55.234375 165.765625 C-53.04529365 169.72813934 -49.70124928 172.45884378 -46 175 C-42.82340774 176.00309237 -42.82340774 176.00309237 -40 175 C-37.28800115 172.36129841 -35.24096482 169.85543714 -35 166 C-36.14805768 161.52257504 -38.57041858 159.01133978 -42 156 C-42.99 155.67 -43.98 155.34 -45 155 C-45 154.34 -45 153.68 -45 153 C-46.3793471 151.81311994 -47.76284003 150.6289022 -49.19921875 149.51171875 C-51.61600645 147.48287528 -53.7747008 145.23795733 -56 143 C-57.01884625 141.98507035 -58.03840928 140.97085988 -59.05859375 139.95727539 C-62.06327251 136.97042204 -65.0648776 133.98050058 -68.06542969 130.98950195 C-69.35424837 129.70572535 -70.64396129 128.42284587 -71.93457031 127.14086914 C-73.81294776 125.27469206 -75.6880137 123.4052408 -77.5625 121.53515625 C-78.13347412 120.96934341 -78.70444824 120.40353058 -79.29272461 119.8205719 C-81.93936089 117.17430305 -84.43599761 114.51369088 -86.77734375 111.59155273 C-87.51082031 110.73634033 -88.24429688 109.88112793 -89 109 C-89.66 109 -90.32 109 -91 109 C-91 108.34 -91 107.68 -91 107 C-92.49207648 105.51810134 -92.49207648 105.51810134 -94.44921875 103.96875 C-97.61967668 101.27925507 -100.47800136 98.48708738 -103.26953125 95.40625 C-112.31286525 85.55469532 -119.60058541 79.26885708 -132.4609375 75.47265625 C-137.18979165 74.06326832 -141.19305063 71.90147464 -145.375 69.3125 C-145.97538086 68.94302246 -146.57576172 68.57354492 -147.19433594 68.19287109 C-149.84399638 66.51424667 -152.27467661 64.7660013 -154.6640625 62.73046875 C-157.43244103 60.67964653 -159.61531235 59.92435163 -162.55224609 62.20581055 Z M-188.91796875 197.87109375 C-191.29916524 200.56377205 -193.65944212 203.27190713 -196 206 C-196.66257812 206.74121094 -197.32515625 207.48242188 -198.0078125 208.24609375 C-202.1229249 213.10050123 -203.97781588 217.49270045 -205.78515625 223.55078125 C-209.53493855 234.19726927 -215.52039746 244.5583907 -223 253 C-221.42813078 257.06780701 -218.5083849 259.5060358 -215.3125 262.3125 C-214.22814161 263.28531695 -213.14480501 264.25927407 -212.0625 265.234375 C-211.53785156 265.70552734 -211.01320313 266.17667969 -210.47265625 266.66210938 C-202.58687728 273.82624544 -202.58687728 273.82624544 -201 277 C-200.34 277 -199.68 277 -199 277 C-198.62415771 277.86371216 -198.62415771 277.86371216 -198.24072266 278.74487305 C-196.83143301 281.30638593 -195.22091237 283.0218495 -193.1484375 285.08203125 C-192.37886719 285.84966797 -191.60929687 286.61730469 -190.81640625 287.40820312 C-190.01074219 288.20162109 -189.20507812 288.99503906 -188.375 289.8125 C-187.59253906 290.59431641 -186.81007812 291.37613281 -186.00390625 292.18164062 C-181.71175147 296.4417644 -177.31809478 300.5067366 -172.73681641 304.45239258 C-170.47606128 306.46686077 -168.47517694 308.64488391 -166.5 310.9375 C-165.8296875 311.70964844 -165.159375 312.48179687 -164.46875 313.27734375 C-163.9840625 313.84582031 -163.499375 314.41429687 -163 315 C-159.52040639 314.36300346 -157.22554455 312.97556553 -154.3125 311 C-144.42627037 304.58908944 -134.14199987 299.02800616 -123.0625 295 C-115.95098965 292.29157372 -111.21063394 288.45875937 -106 283 C-104.66781362 281.6655207 -103.33483907 280.33182589 -102 279 C-102.66386719 278.41992188 -103.32773437 277.83984375 -104.01171875 277.2421875 C-112.11135286 270.07667178 -112.11135286 270.07667178 -115 266.4375 C-115.66 265.633125 -116.32 264.82875 -117 264 C-117.66 264 -118.32 264 -119 264 C-119.226875 263.44441406 -119.45375 262.88882813 -119.6875 262.31640625 C-121.37697184 259.33468957 -123.53502125 257.3129083 -126 254.9375 C-130.64964783 250.44329097 -133.29451892 247.87759356 -133.4375 241.25 C-133.34894073 235.15416992 -132.13201619 232.42029639 -128 228 C-127.01 227.34 -126.02 226.68 -125 226 C-125.495 224.02 -125.495 224.02 -126 222 C-127.32 221.67 -128.64 221.34 -130 221 C-130.7425 221.94875 -131.485 222.8975 -132.25 223.875 C-134.24884096 226.42907457 -135.94990736 227.83832212 -139 229 C-145.14417099 229.71465433 -150.86625359 229.73363375 -156 226 C-157.72758232 224.1973054 -159.33260912 222.32560877 -160.9296875 220.40625 C-163.44408038 217.48386129 -166.09915539 214.73680037 -168.8125 212 C-169.29291748 211.50693359 -169.77333496 211.01386719 -170.26831055 210.50585938 C-171.47312358 209.29698542 -172.73275186 208.14325537 -174 207 C-174.66 207 -175.32 207 -176 207 C-176.2578125 206.41734375 -176.515625 205.8346875 -176.78125 205.234375 C-178.09834017 202.8197097 -179.55088384 201.18259823 -181.5 199.25 C-182.1084375 198.63640625 -182.716875 198.0228125 -183.34375 197.390625 C-185.89311288 195.25012221 -186.55888408 195.56966492 -188.91796875 197.87109375 Z M-5.1809082 198.14038086 C-5.8556871 198.82884598 -5.8556871 198.82884598 -6.5440979 199.53121948 C-7.97550644 200.97528977 -9.43872775 202.37395935 -10.92260742 203.76391602 C-13.76425019 206.42701429 -16.57463369 209.12073556 -19.37573242 211.82641602 C-20.58015224 212.98052318 -21.79339038 214.12549978 -23.01538086 215.26098633 C-32.62767699 224.08771424 -32.62767699 224.08771424 -35.80541992 236.45678711 C-36.12199145 240.59446042 -37.99101072 243.2513304 -41 246 C-46.64565995 250.21224072 -52.13758785 250.62385565 -59 250 C-62.125 249.5 -62.125 249.5 -64 249 C-66.34287418 251.67247634 -66.34287418 251.67247634 -67 255 C-74.47007317 259.04628964 -80.59004912 261.20019369 -89 259 C-92 256.9375 -92 256.9375 -94 255 C-94.66 255 -95.32 255 -96 255 C-96 254.34 -96 253.68 -96 253 C-97.3862779 251.63833904 -97.3862779 251.63833904 -99.25 250.1875 C-103.90893963 246.27032356 -107.88613481 241.85039209 -111.87402344 237.26831055 C-113.19077991 235.79116882 -114.59034814 234.38876813 -116 233 C-116.99 233 -117.98 233 -119 233 C-121.33219099 235.33219099 -122.80929438 237.03669214 -123.45703125 240.30859375 C-122.78625972 244.25869273 -120.31942731 246.25363337 -117.5 248.875 C-116.67350952 249.67151978 -116.67350952 249.67151978 -115.83032227 250.48413086 C-112.33814527 253.8252065 -108.73716771 257.02528383 -105.0625 260.1640625 C-98.48281773 266.02097664 -92.41363127 272.42237604 -86.671875 279.09375 C-79.76096226 286.97348228 -73.30597633 292.52402469 -63.375 296.0625 C-56.80420491 298.47641885 -50.76465815 301.64781775 -44.625 305 C-43.68575684 305.51054932 -42.74651367 306.02109863 -41.77880859 306.54711914 C-37.68404478 308.8119738 -33.75341557 311.0983014 -30 313.8984375 C-27.24237736 316.33989796 -27.24237736 316.33989796 -24.375 315.625 C-20.05092603 312.66642307 -16.66149286 308.66774106 -13.15673828 304.80078125 C-7.63387793 298.7124076 -1.92971153 292.81979523 3.875 287 C4.58817383 286.28231445 5.30134766 285.56462891 6.03613281 284.82519531 C9.03466258 281.83510814 12.02432274 278.91149706 15.3046875 276.23046875 C17.57279424 274.35352825 19.38814745 272.57122112 21.25 270.3125 C25.54950945 265.25936866 30.26880828 260.64551622 35 256 C33.7215343 252.43767326 32.21863611 249.82907157 29.875 246.875 C24.91475644 239.98864933 22.09630441 232.17738311 18.96020508 224.35229492 C15.40863019 215.65170401 12.06089334 209.6149332 4.74609375 203.55859375 C2.18494858 201.27247088 0.15715403 198.66471969 -2 196 C-3.39034003 195.88325927 -3.39034003 195.88325927 -5.1809082 198.14038086 Z M-252.6171875 255.72265625 C-253.11920685 256.22035019 -253.6212262 256.71804413 -254.13845825 257.2308197 C-255.19395649 258.28593709 -256.24076964 259.34980512 -257.27929688 260.42163086 C-258.86847941 262.05579484 -260.4893638 263.65247437 -262.1171875 265.24804688 C-263.14010527 266.27918636 -264.16100989 267.31232764 -265.1796875 268.34765625 C-266.10507324 269.28617432 -267.03045898 270.22469238 -267.98388672 271.19165039 C-270.34623166 274.48228418 -270.60516735 276.03611944 -270 280 C-267.98565455 282.73983603 -267.98565455 282.73983603 -265.25 285.125 C-264.36828125 285.95257813 -263.4865625 286.78015625 -262.578125 287.6328125 C-261.72734375 288.41398437 -260.8765625 289.19515625 -260 290 C-259.27296875 290.76054687 -258.5459375 291.52109375 -257.796875 292.3046875 C-256.16927763 294.22875067 -256.16927763 294.22875067 -254 294 C-253.73766068 294.60021973 -253.47532135 295.20043945 -253.20503235 295.81884766 C-251.92178941 298.14156401 -250.77406575 299.24638867 -248.71948242 300.8984375 C-242.92133557 305.81212955 -237.69609654 311.27485271 -232.38042641 316.69723511 C-229.11925778 320.01979541 -225.84227736 323.32672932 -222.56835938 326.63671875 C-218.41913167 330.83397566 -214.27470803 335.03571093 -210.14526367 339.25244141 C-206.79031537 342.67748159 -203.42103844 346.08782059 -200.04161644 349.4887085 C-198.75915394 350.78477572 -197.48212828 352.08624604 -196.21068764 353.39312744 C-194.43957717 355.21230443 -192.65081005 357.01214784 -190.85668945 358.80859375 C-190.33554062 359.35288528 -189.81439178 359.89717682 -189.27745056 360.45796204 C-187.65503573 362.1258426 -187.65503573 362.1258426 -185 364 C-180.38016037 363.90370311 -178.39256123 361.86644473 -175.2421875 358.6328125 C-173.93314453 357.30443359 -173.93314453 357.30443359 -172.59765625 355.94921875 C-171.69917969 355.01722656 -170.80070312 354.08523438 -169.875 353.125 C-168.96878906 352.20074219 -168.06257813 351.27648437 -167.12890625 350.32421875 C-165.44707615 348.60750625 -163.76938263 346.88672461 -162.09716797 345.16064453 C-160 343 -160 343 -158.15673828 341.52294922 C-156.75420438 340.01767084 -156.75420438 340.01767084 -157.12425232 337.7386322 C-158.28827144 334.0985195 -160.15159038 332.35415331 -162.85522461 329.65893555 C-163.35934372 329.15101974 -163.86346283 328.64310394 -164.38285828 328.11979675 C-166.04641598 326.44884827 -167.72390153 324.79270482 -169.40234375 323.13671875 C-170.56270508 321.97874209 -171.72232756 320.82002463 -172.88124084 319.66059875 C-175.30881935 317.23614538 -177.74296129 314.81855153 -180.18237305 312.40600586 C-183.31452333 309.30791066 -186.43326963 306.19673557 -189.54767513 303.08081341 C-191.93964336 300.6893879 -194.33677965 298.30320178 -196.73571968 295.91877174 C-197.88800727 294.77286231 -199.03907539 293.6257253 -200.18891716 292.47736168 C-201.7927691 290.87782762 -203.40302031 289.28504258 -205.01538086 287.6940918 C-205.93169785 286.78539841 -206.84801483 285.87670502 -207.792099 284.94047546 C-209.76047146 282.77994908 -209.76047146 282.77994908 -212 283 C-212.495 281.515 -212.495 281.515 -213 280 C-214.82847958 278.18498746 -214.82847958 278.18498746 -217 276.4375 C-220.90076336 273.19847328 -220.90076336 273.19847328 -222 271 C-222.66 271 -223.32 271 -224 271 C-224.26264648 270.41500732 -224.52529297 269.83001465 -224.79589844 269.22729492 C-226.90528076 265.32545085 -230.14767397 262.44162155 -233.25 259.3125 C-233.90613281 258.62349609 -234.56226563 257.93449219 -235.23828125 257.22460938 C-236.21087891 256.24137695 -236.21087891 256.24137695 -237.203125 255.23828125 C-237.78739258 254.64055908 -238.37166016 254.04283691 -238.97363281 253.42700195 C-244.74117704 249.36540002 -247.97764173 251.09072944 -252.6171875 255.72265625 Z M52.4375 254.1875 C51.633125 255.115625 50.82875 256.04375 50 257 C48.8553125 258.0828125 48.8553125 258.0828125 47.6875 259.1875 C45.77286049 260.83122273 45.77286049 260.83122273 46 263 C45.10357347 263.40928364 45.10357347 263.40928364 44.18903732 263.82683563 C42.05838454 264.96871015 40.67565701 266.07299009 38.97540283 267.77062988 C38.40615585 268.33423721 37.83690887 268.89784454 37.25041199 269.47853088 C36.63829361 270.09469772 36.02617523 270.71086456 35.39550781 271.34570312 C34.74143448 271.99627182 34.08736115 272.64684052 33.41346741 273.31712341 C31.25496401 275.4668306 29.10385062 277.62376339 26.953125 279.78125 C25.45697815 281.27604992 23.96053449 282.77055282 22.46380615 284.26477051 C19.33019053 287.395438 16.20022043 290.52969395 13.07275391 293.66650391 C9.05534308 297.6953287 5.02899519 301.7150833 0.999897 305.73221588 C-2.09024135 308.81514411 -5.17562112 311.90279909 -8.25955963 314.9919281 C-9.74292248 316.47662877 -11.22778249 317.95983513 -12.71413422 319.44154358 C-14.78531767 321.50767365 -16.85002437 323.58006133 -18.91308594 325.65429688 C-19.53330124 326.27046371 -20.15351654 326.88663055 -20.79252625 327.52146912 C-23.93736654 330.25249489 -23.93736654 330.25249489 -25 334 C-25.639375 334.226875 -26.27875 334.45375 -26.9375 334.6875 C-29.20309829 335.84049267 -29.20309829 335.84049267 -29.87890625 338.3125 C-30.28867266 341.0929084 -30.28867266 341.0929084 -28.375 343.17578125 C-27.59125 343.88089844 -26.8075 344.58601563 -26 345.3125 C-22.96281758 348.14313524 -20.10247781 350.94062977 -17.4375 354.125 C-15.02893204 356.90239739 -12.54938219 359.53808316 -9.875 362.0625 C-9.25367188 362.65160156 -8.63234375 363.24070312 -7.9921875 363.84765625 C-6.05221844 365.21156207 -6.05221844 365.21156207 -3.71008301 364.87922668 C-0.07499423 363.69990227 1.67190356 361.80118699 4.35351562 359.0847168 C4.86315353 358.5740567 5.37279144 358.06339661 5.89787292 357.53726196 C7.57685686 355.85040757 9.24133055 354.1499464 10.90625 352.44921875 C12.07444759 351.27101354 13.24361133 350.09376556 14.41369629 348.91743469 C17.49144332 345.8187609 20.55743367 342.70871786 23.6206665 339.59570312 C28.52021139 334.62089323 33.43841749 329.66451473 38.35466003 324.70621681 C40.06661756 322.97663059 41.77423659 321.24285701 43.4810791 319.50822449 C44.53615829 318.43991671 45.5912906 317.3716614 46.64648438 316.3034668 C47.5618396 315.37382614 48.47719482 314.44418549 49.42028809 313.4863739 C51.84283875 311.15147491 54.3553618 309.07529352 57 307 C58.09695808 305.81617799 59.16129703 304.60112483 60.1875 303.35546875 C62.93605707 300.13813663 65.82090191 297.16749277 68.875 294.23828125 C69.71417969 293.42939453 70.55335938 292.62050781 71.41796875 291.78710938 C73.16149147 290.11612353 74.91437404 288.45485719 76.67578125 286.80273438 C77.50464844 285.99771484 78.33351563 285.19269531 79.1875 284.36328125 C79.94417969 283.64438721 80.70085937 282.92549316 81.48046875 282.18481445 C83.22636013 280.10911772 83.22636013 280.10911772 83.03417969 277.55639648 C81.67975276 274.20837847 79.81243938 272.2941786 77.265625 269.734375 C76.79058533 269.25550842 76.31554565 268.77664185 75.82611084 268.28326416 C74.82225396 267.2766936 73.81336092 266.27512355 72.79980469 265.27832031 C71.25483961 263.75477252 69.73237257 262.21106791 68.2109375 260.6640625 C67.23044658 259.68621495 66.24871548 258.70960902 65.265625 257.734375 C64.37649414 256.84975586 63.48736328 255.96513672 62.57128906 255.05371094 C58.68336651 251.94839338 56.38003093 250.82192482 52.4375 254.1875 Z " fill="#D8DADD" transform="translate(424,127)"/>
<path d="M0 0 C0 4.64519506 -2.89516431 6.7580769 -6 10 C-7.09812464 10.9665852 -8.21020979 11.91746196 -9.33325195 12.85498047 C-15.93746052 18.58140432 -22.00321894 24.88058637 -28.16796875 31.0703125 C-29.53439197 32.4386048 -30.9010391 33.80667352 -32.26789856 35.17453003 C-35.84706249 38.75749016 -39.42321464 42.34344138 -42.99871826 45.93005371 C-46.63469972 49.57627566 -50.27351886 53.21966322 -53.91210938 56.86328125 C-59.7873706 62.74730348 -65.66092576 68.63302208 -71.53216553 74.52105713 C-72.04915512 75.03949188 -72.56614471 75.55792664 -73.09880066 76.09207153 C-73.8276777 76.82776808 -73.8276777 76.82776808 -74.57127953 77.57832718 C-75.98412076 78.98419909 -77.43242671 80.35413516 -78.8808136 81.72335815 C-81.28448877 83.79575013 -81.28448877 83.79575013 -81.0390625 86.57421875 C-79.85143374 89.34684079 -78.59311591 90.7785134 -76.375 92.8125 C-73.55975489 95.47719724 -70.93653914 98.16128692 -68.4375 101.125 C-66.1810596 103.72067746 -63.88806852 106.21226529 -61.375 108.5625 C-60.84648437 109.05878906 -60.31796875 109.55507813 -59.7734375 110.06640625 C-57.99795773 111.19578556 -57.99795773 111.19578556 -55.72871399 110.86952209 C-52.16479623 109.733857 -50.10966264 107.64032058 -47.56713867 105.02124023 C-47.0494693 104.50415497 -46.53179993 103.9870697 -45.9984436 103.45431519 C-44.29529472 101.74838687 -42.60674041 100.02874594 -40.91796875 98.30859375 C-39.73771721 97.12087936 -38.55657752 95.93404694 -37.37458801 94.74806213 C-34.27009208 91.62831356 -31.17779694 88.49673915 -28.08789062 85.36254883 C-24.93110978 82.1648077 -21.76293666 78.9783981 -18.59570312 75.79101562 C-12.38592962 69.53837771 -6.18899976 63.27320059 0 57 C0.66 57.33 1.32 57.66 2 58 C-5.07293416 65.16560439 -12.15662758 72.32037781 -19.25426769 79.46151638 C-22.54963493 82.77776044 -25.84117737 86.09762302 -29.12426758 89.42602539 C-32.29262177 92.63783278 -35.47064063 95.83977703 -38.65560341 99.03511238 C-39.86914858 100.25604977 -41.07916685 101.48050319 -42.28557396 102.70849419 C-43.97570104 104.42764719 -45.67792574 106.13388194 -47.38354492 107.83764648 C-47.87985916 108.34834183 -48.3761734 108.85903717 -48.88752747 109.38520813 C-51.77099955 112.23492068 -53.88020817 113.83565282 -58 114 C-60.18359375 112.62109375 -60.18359375 112.62109375 -62.4375 110.4375 C-63.29085938 109.62023437 -64.14421875 108.80296875 -65.0234375 107.9609375 C-66.01644013 106.97477844 -67.00855254 105.98772255 -68 105 C-69.24190371 103.78356437 -70.48410705 102.56743459 -71.7265625 101.3515625 C-74.22381386 98.8904343 -76.71732491 96.42584083 -79.19140625 93.94140625 C-79.70904541 93.42263916 -80.22668457 92.90387207 -80.76000977 92.36938477 C-82.52267197 90.42278656 -83.00450464 88.97820638 -83.53869629 86.39376831 C-82.68864553 81.03847742 -79.17176981 78.38525087 -75.38085938 74.69970703 C-74.57131302 73.88928452 -73.76176666 73.078862 -72.9276886 72.24388123 C-70.2470184 69.56739272 -67.54571946 66.91278318 -64.84375 64.2578125 C-62.98156576 62.40681807 -61.1207014 60.55449491 -59.2611084 58.70089722 C-54.86374237 54.32217078 -50.45130821 49.95896158 -46.03324461 45.60113037 C-41.00338305 40.63836158 -35.99057293 35.65851978 -30.97911739 30.67717576 C-20.67160535 20.43235854 -10.34285857 10.20912966 0 0 Z " fill="#323944" transform="translate(476,380)"/>
<path d="M0 0 C4.92370194 4.12699063 9.54880225 8.41743708 14.06518555 12.98339844 C14.73277893 13.65405838 15.40037231 14.32471832 16.0881958 15.01570129 C17.52535122 16.45996525 18.961376 17.90535501 20.39636803 19.35176849 C22.66780173 21.64069739 24.94285216 23.92597406 27.21894836 26.21026611 C33.68549627 32.70118534 40.14630648 39.19779384 46.6027832 45.69873047 C50.56178795 49.68449145 54.52562881 53.66538925 58.49250221 57.64331818 C60.00108766 59.15811309 61.50777273 60.67480304 63.01251793 62.19341278 C65.11148558 64.31156278 67.21651027 66.42351211 69.32299805 68.53417969 C69.94282059 69.16276382 70.56264313 69.79134796 71.20124817 70.4389801 C71.77720734 71.0136351 72.3531665 71.5882901 72.94657898 72.18035889 C73.4426298 72.67955212 73.93868063 73.17874535 74.4497633 73.69306564 C78.03505455 76.71566233 81.13735128 77.25308042 85.8046875 77.4609375 C91.39899763 76.28633146 95.6346367 71.62138939 99.546875 67.71875 C100.044151 67.22338745 100.541427 66.7280249 101.05377197 66.21765137 C102.09478298 65.17799163 103.13331181 64.13584099 104.16943359 63.09130859 C105.75269106 61.49729065 107.34640673 59.91429037 108.94140625 58.33203125 C109.95637142 57.31574518 110.9707164 56.29883927 111.984375 55.28125 C112.89928711 54.36408203 113.81419922 53.44691406 114.75683594 52.50195312 C118.80956062 47.98167423 119.48179299 44.56705317 119.40234375 38.6171875 C118.75067972 34.3782079 116.60304478 31.32817869 114 28 C117.68656302 29.59544534 119.33861152 31.39228119 121.23828125 35.00390625 C122.91483726 39.39734277 122.62420325 43.38161121 120.92578125 47.78515625 C118.41638363 51.97427236 115.26275829 55.01695864 111.75 58.375 C106.99661534 63.00459564 102.37886392 67.61038083 98.19921875 72.77734375 C97.80347656 73.18082031 97.40773438 73.58429688 97 74 C96.34 74 95.68 74 95 74 C94.505 75.485 94.505 75.485 94 77 C92.25 78.01953125 92.25 78.01953125 90 78.8125 C89.278125 79.08707031 88.55625 79.36164063 87.8125 79.64453125 C83.41479544 80.20035224 80.06554307 79.8551852 76 78 C72.00631587 74.8131911 68.5438069 71.16351495 65.0625 67.4375 C64.11046247 66.44169436 63.15669761 65.44753713 62.20117188 64.45507812 C60.46212547 62.64881017 58.73143945 60.83442879 57.01196289 59.00952148 C55.16021868 56.94858777 55.16021868 56.94858777 53 56 C53 55.34 53 54.68 53 54 C52.12794922 53.61714844 52.12794922 53.61714844 51.23828125 53.2265625 C48.77184519 51.87497276 47.15157146 50.38307306 45.1875 48.375 C44.56230469 47.74335938 43.93710938 47.11171875 43.29296875 46.4609375 C41.42916346 44.46060133 39.64432283 42.42891811 37.86425781 40.35546875 C34.05237454 35.99247467 30.00728008 31.9132165 25.87890625 27.8515625 C24.35208646 26.33736771 22.82539739 24.8230411 21.29882812 23.30859375 C18.915024 20.94976775 16.52963297 18.59258711 14.1418457 16.23779297 C11.82072429 13.94668707 9.50570793 11.64955394 7.19140625 9.3515625 C6.46965714 8.64327301 5.74790802 7.93498352 5.00428772 7.20523071 C4.34617599 6.55049774 3.68806427 5.89576477 3.01000977 5.22119141 C2.42711685 4.64575592 1.84422394 4.07032043 1.2436676 3.47744751 C0 2 0 2 0 0 Z " fill="#3D414B" transform="translate(157,424)"/>
<path d="M0 0 C7.52313405 1.76377188 13.73860206 10.16293731 19.11181641 15.49072266 C20.23769669 16.60192726 20.23769669 16.60192726 21.38632202 17.73558044 C23.84098755 20.16060075 26.29161363 22.58963412 28.7409668 25.02001953 C30.00235065 26.27154564 30.00235065 26.27154564 31.289217 27.5483551 C35.72882463 31.95552476 40.16445916 36.36665615 44.59765625 40.78027344 C48.26277543 44.42750482 51.93624249 48.06600817 55.6171875 51.69726562 C60.07466454 56.09466574 64.51734514 60.50650704 68.94973946 64.92918396 C70.63794867 66.60882881 72.33129166 68.2833301 74.02982903 69.95252991 C76.39954417 72.28345753 78.74975411 74.6324897 81.09619141 76.98681641 C81.80003464 77.67065903 82.50387787 78.35450165 83.22904968 79.05906677 C87.33462614 83.22704836 89.03528301 85.82485293 89.15112305 91.73876953 C88.16112305 92.23376953 88.16112305 92.23376953 87.15112305 92.73876953 C87.08305954 91.69508209 87.01499603 90.65139465 86.94487 89.57608032 C86.0088468 85.05094556 84.70629499 83.55903766 81.45117188 80.34179688 C80.96323151 79.85137405 80.47529114 79.36095123 79.9725647 78.85566711 C78.36505867 77.24724713 76.73728115 75.66119924 75.1081543 74.07470703 C73.97928629 72.95450386 72.85167529 71.83303266 71.7252655 70.71035767 C68.76026891 67.76255976 65.77728095 64.83362606 62.79052734 61.90789795 C60.36509475 59.52597923 57.95264398 57.131152 55.54082203 54.7354641 C52.65079629 51.86513198 49.75542373 49.00022568 46.8581543 46.13720703 C46.31094034 45.59641888 45.76372639 45.05563072 45.19993019 44.49845505 C43.63539919 42.95511241 42.0673983 41.41539227 40.49804688 39.87695312 C39.60837723 39.0031601 38.71870758 38.12936707 37.80207825 37.22909546 C35.00474095 34.60125716 32.11184214 32.17991165 29.15112305 29.73876953 C24.31241337 25.2226405 24.31241337 25.2226405 23.15112305 21.73876953 C22.49112305 21.73876953 21.83112305 21.73876953 21.15112305 21.73876953 C19.77612305 20.34033203 19.77612305 20.34033203 18.15112305 18.36376953 C15.20867302 14.92988735 12.21049251 11.57381746 9.08862305 8.30126953 C8.29327148 7.45693359 7.49791992 6.61259766 6.6784668 5.74267578 C3.6341911 3.32889922 2.02280097 2.85241491 -1.84887695 2.73876953 C-4.67791957 4.52085088 -4.67791957 4.52085088 -7.2121582 7.24267578 C-7.68960983 7.71817368 -8.16706146 8.19367157 -8.65898132 8.68357849 C-9.66313512 9.69172565 -10.65867874 10.70851291 -11.64599609 11.7331543 C-13.15336076 13.29297438 -14.69005154 14.81839849 -16.23364258 16.34228516 C-22.54366945 22.46204626 -22.54366945 22.46204626 -24.84887695 30.73876953 C-25.50887695 30.40876953 -26.16887695 30.07876953 -26.84887695 29.73876953 C-26.45303828 24.2953607 -24.72223338 21.96236938 -20.9309082 18.12158203 C-20.43604416 17.61956268 -19.94118011 17.11754333 -19.43132019 16.60031128 C-18.38590328 15.54714004 -17.33409807 14.50027598 -16.27636719 13.45947266 C-14.66411848 11.86647832 -13.08339587 10.2462793 -11.50317383 8.62158203 C-10.48085677 7.59897465 -9.45682301 6.57808 -8.4309082 5.55908203 C-7.50511963 4.63369629 -6.57933105 3.70831055 -5.62548828 2.75488281 C-2.84887695 0.73876953 -2.84887695 0.73876953 0 0 Z " fill="#434750" transform="translate(178.848876953125,376.26123046875)"/>
<path d="M0 0 C3.40805409 4.3423493 6.12429315 9.085289 8.96484375 13.80859375 C10.81856802 16.71548958 12.79166825 19.35691838 15 22 C13.07577497 26.60140767 9.65479294 29.40519631 6.09375 32.78125 C4.15386064 34.83695365 3.15174575 36.46189362 2 39 C0 41.25 0 41.25 -2 43 C-2.66 43 -3.32 43 -4 43 C-4.27295898 43.59762146 -4.54591797 44.19524292 -4.82714844 44.81097412 C-5.96699868 46.9384059 -7.07214943 48.32540472 -8.765625 50.02441406 C-9.31959961 50.58469299 -9.87357422 51.14497192 -10.44433594 51.722229 C-11.04020508 52.31404968 -11.63607422 52.90587036 -12.25 53.515625 C-12.86391602 54.13145447 -13.47783203 54.74728394 -14.11035156 55.3817749 C-15.40574483 56.67852646 -16.70365644 57.97276657 -18.00390625 59.26464844 C-19.99975068 61.24975202 -21.98466726 63.24533591 -23.96875 65.2421875 C-25.22852555 66.50064211 -26.48892101 67.75847654 -27.75 69.015625 C-28.34586914 69.6155426 -28.94173828 70.21546021 -29.55566406 70.83355713 C-33.77006753 75 -33.77006753 75 -36 75 C-36.28875 75.61875 -36.5775 76.2375 -36.875 76.875 C-38 79 -38 79 -40 81 C-40.99 81 -41.98 81 -43 81 C-43 81.66 -43 82.32 -43 83 C-43.66 82.67 -44.32 82.34 -45 82 C-44.28199219 81.29230469 -43.56398438 80.58460938 -42.82421875 79.85546875 C-40.54944613 77.58069613 -38.36576994 75.23560907 -36.20654297 72.8503418 C-30.42369079 66.47097474 -24.43883649 60.29963948 -18.375 54.1875 C-17.5806958 53.38030518 -16.7863916 52.57311035 -15.96801758 51.74145508 C-15.22318115 50.99532959 -14.47834473 50.2492041 -13.7109375 49.48046875 C-13.04368652 48.80910889 -12.37643555 48.13774902 -11.68896484 47.44604492 C-10 46 -10 46 -8 46 C-7.67 45.01 -7.34 44.02 -7 43 C-5.59113262 41.82594385 -4.17826295 40.65623995 -2.7421875 39.515625 C-0.13388965 37.24652284 2.01566912 34.63096854 4.25390625 32.00390625 C6.70432247 29.19168361 9.3308335 26.60406488 12 24 C10.64875335 20.22861009 8.93029184 17.28575211 6.5625 14.0625 C0 4.875 0 4.875 0 0 Z " fill="#515867" transform="translate(446,359)"/>
<path d="M0 0 C0.99 0.495 0.99 0.495 2 1 C-8.3087569 11.44892344 -18.63466436 21.88063369 -28.98124123 32.29211426 C-33.78495861 37.12676874 -38.58290868 41.96689647 -43.36767578 46.8203125 C-47.98351361 51.50234376 -52.614907 56.16859382 -57.25617599 60.82543945 C-59.02609153 62.60645842 -60.79070932 64.39275802 -62.54994583 66.18432617 C-65.01126306 68.68907139 -67.49059376 71.17453275 -69.97509766 73.65625 C-71.0648288 74.77833862 -71.0648288 74.77833862 -72.17657471 75.9230957 C-77.18621696 80.87209714 -77.18621696 80.87209714 -81.38085938 81.53137207 C-84.29768592 80.93960539 -85.47829582 80.28596775 -87.5859375 78.21875 C-88.51200806 77.33147217 -88.51200806 77.33147217 -89.45678711 76.42626953 C-90.40630249 75.47276611 -90.40630249 75.47276611 -91.375 74.5 C-92.03185791 73.86304199 -92.68871582 73.22608398 -93.36547852 72.56982422 C-95.25851081 70.72758802 -97.131435 68.86700483 -99 67 C-100.36318359 65.65808594 -100.36318359 65.65808594 -101.75390625 64.2890625 C-103.51832867 62.54042203 -105.26857345 60.78121198 -107 59 C-106.67 58.34 -106.34 57.68 -106 57 C-105.51644043 57.48879639 -105.03288086 57.97759277 -104.53466797 58.48120117 C-102.31747863 60.71932739 -100.09627956 62.95343347 -97.875 65.1875 C-97.11445313 65.95642578 -96.35390625 66.72535156 -95.5703125 67.51757812 C-93.39884594 69.69840445 -91.20741262 71.85561166 -89 74 C-88.43313477 74.56154785 -87.86626953 75.1230957 -87.28222656 75.70166016 C-85.03742094 77.7803703 -83.59922908 78.96073694 -80.49609375 79.1640625 C-77.02721888 77.54633995 -74.65307257 75.11672362 -72.0625 72.375 C-71.53253418 71.83029053 -71.00256836 71.28558105 -70.45654297 70.72436523 C-67.26392011 67.41719339 -64.22775686 64.01244159 -61.30859375 60.4609375 C-59.11764984 58.01492848 -56.54281506 56.06973319 -54 54 C-53.505 53.01 -53.505 53.01 -53 52 C-52.34 52 -51.68 52 -51 52 C-51 51.34 -51 50.68 -51 50 C-50.34 50 -49.68 50 -49 50 C-49 49.34 -49 48.68 -49 48 C-48.34 48 -47.68 48 -47 48 C-46.7436377 47.40602921 -46.48727539 46.81205841 -46.22314453 46.2000885 C-44.88186853 43.78751514 -43.55569255 42.54165557 -41.4296875 40.79858398 C-36.75148997 36.83542556 -32.44399481 32.57067504 -28.125 28.22265625 C-27.31506592 27.41130722 -26.50513184 26.59995819 -25.6706543 25.76402283 C-23.11138985 23.19920861 -20.5556447 20.63092052 -18 18.0625 C-16.25413867 16.31161717 -14.50804713 14.56096387 -12.76171875 12.81054688 C-8.50514802 8.54301384 -4.25145284 4.27263134 0 0 Z " fill="#404654" transform="translate(262,173)"/>
<path d="M0 0 C0 3 0 3 -1.15454292 4.5208931 C-1.6998258 5.06211178 -2.24510868 5.60333046 -2.80691528 6.16094971 C-3.74050117 7.09855385 -3.74050117 7.09855385 -4.69294739 8.05509949 C-5.73076607 9.07438286 -5.73076607 9.07438286 -6.78955078 10.11425781 C-7.87237083 11.19532555 -7.87237083 11.19532555 -8.97706604 12.29823303 C-11.37626783 14.690221 -13.78581135 17.07151588 -16.1953125 19.453125 C-17.86318155 21.11285892 -19.5303168 22.77333053 -21.19674683 24.43450928 C-25.59724492 28.81784851 -30.00621654 33.19256135 -34.41741943 37.56512451 C-41.45917944 44.54783412 -48.4885148 51.54304392 -55.51708603 58.53902435 C-57.97041397 60.97843857 -60.42755033 63.41396404 -62.88528442 65.84893799 C-64.40163749 67.35525891 -65.91790767 68.86166327 -67.43408203 70.36816406 C-68.11381577 71.03958939 -68.7935495 71.71101471 -69.49388123 72.40278625 C-73.09134957 75.98359375 -76.50219684 79.64302762 -79.749403 83.54555893 C-83.31223767 87.68912641 -87.31365812 90.52664088 -92.5625 92 C-96.52060115 92 -99.3377944 91.52016082 -103 90 C-105.4375 87.375 -105.4375 87.375 -107 85 C-103 87 -103 87 -101.25 88.125 C-97.87722581 89.43663441 -94.51688929 89.73842159 -91 89 C-85.36857043 85.73222167 -81.07725389 81.3467198 -76.51611328 76.74316406 C-75.2712188 75.49870766 -75.2712188 75.49870766 -74.00117493 74.22911072 C-71.2694512 71.49599785 -68.5448728 68.75587737 -65.8203125 66.015625 C-63.9236023 64.1151832 -62.02650242 62.21513861 -60.12887573 60.31561279 C-55.65201178 55.83254648 -51.18026817 51.34440895 -46.71036518 46.85440326 C-41.61876753 41.7404078 -36.52145196 36.63212786 -31.42366052 31.52430773 C-20.94275612 21.02252953 -10.46901218 10.5136339 0 0 Z " fill="#33363E" transform="translate(515,413)"/>
<path d="M0 0 C0 3 0 3 -2.44677734 5.62866211 C-3.57082036 6.68430032 -4.70100716 7.73341949 -5.8359375 8.77734375 C-7.05834171 9.9422585 -8.27966086 11.10831272 -9.5 12.27539062 C-11.42698192 14.10392253 -13.35998872 15.92366656 -15.31347656 17.72387695 C-24.39101065 25.69369428 -24.39101065 25.69369428 -28.6875 36.59765625 C-28.71972656 37.53230713 -28.75195312 38.46695801 -28.78515625 39.42993164 C-29.16552044 43.98003832 -31.73540061 46.98205923 -35 50 C-40.62057772 54.24558661 -46.14207138 54.62344806 -53 54 C-56.125 53.5 -56.125 53.5 -58 53 C-58.391875 53.7425 -58.78375 54.485 -59.1875 55.25 C-61.90479782 59.3727967 -64.62819897 61.43514075 -69.1875 63.3125 C-74.72741869 64.31150173 -80.11794412 64.55897685 -85.1953125 61.8125 C-87.125 60.4375 -87.125 60.4375 -90 58 C-89.67 57.34 -89.34 56.68 -89 56 C-88.53851563 56.3609375 -88.07703125 56.721875 -87.6015625 57.09375 C-82.85811404 60.46853546 -79.23461084 61.7546629 -73.390625 61.4140625 C-67.71521588 60.4310668 -64.40523499 57.85326354 -61.0625 53.25 C-60.0415625 51.64125 -60.0415625 51.64125 -59 50 C-57.94425781 50.23783203 -57.94425781 50.23783203 -56.8671875 50.48046875 C-50.77161629 51.58497961 -43.71244272 52.30676298 -38 49.5 C-34.31118273 46.42598561 -32.34421325 43.60356903 -31 39 C-30.98166611 38.35645569 -30.96333221 37.71291138 -30.94444275 37.04986572 C-30.71886223 30.18282617 -28.23261869 27.1410647 -23.33984375 22.55859375 C-22.67537735 21.90544693 -22.01091095 21.25230011 -21.3263092 20.57936096 C-19.21484024 18.51241545 -17.07722557 16.47513896 -14.9375 14.4375 C-13.4949203 13.03507742 -12.05414367 11.6307976 -10.61523438 10.22460938 C-7.09732558 6.79456109 -3.55570226 3.39083689 0 0 Z " fill="#2E323D" transform="translate(418,324)"/>
<path d="M0 0 C1.73047616 1.60031491 3.38797112 3.28043074 5 5 C5.88302292 5.88524353 6.76604584 6.77048706 7.67582703 7.68255615 C8.64547923 8.65521054 9.61510796 9.62788832 10.5847168 10.60058594 C15.99445054 16.02659347 21.40667601 21.45010825 26.82036114 26.87217331 C30.08997543 30.14703017 33.35863768 33.42282626 36.62524414 36.70068359 C39.79296083 39.87923653 42.96308867 43.05536592 46.13492775 46.22980499 C47.34270012 47.43942735 48.54959091 48.6499306 49.75559044 49.8613205 C51.43591169 51.54886382 53.11929871 53.23328926 54.8034668 54.91699219 C55.55233406 55.67125237 55.55233406 55.67125237 56.31632996 56.44075012 C59.46312632 59.57810776 60.85731365 60.91535657 65.375 61.25 C69.11659328 60.99195908 70.35674154 60.53752812 73 58 C71.63016497 61.16115776 71.0109362 61.9927092 68 64 C64.47391636 64.4345521 62.66595018 64.43558027 59.66230774 62.47097778 C58.54229622 61.38730423 58.54229622 61.38730423 57.3996582 60.28173828 C56.53595612 59.45530823 55.67225403 58.62887817 54.78237915 57.77740479 C53.86419403 56.86086121 52.94600891 55.94431763 52 55 C51.5276379 54.53195702 51.0552758 54.06391403 50.5685997 53.58168793 C47.4444425 50.48244925 44.35675471 47.34884903 41.28014183 44.20248032 C38.37165704 41.23213303 35.44688606 38.2778537 32.52539062 35.3203125 C28.83270253 31.57957719 25.14494917 27.83427174 21.47192383 24.07421875 C18.47776626 21.00996651 15.46929656 17.9604427 12.45064735 14.92032242 C11.3077277 13.76381119 10.17024273 12.60190273 9.03838158 11.4345665 C7.46384468 9.81195007 5.87174068 8.20878288 4.27416992 6.60888672 C3.37389572 5.69227264 2.47362152 4.77565857 1.54606628 3.83126831 C-0.86268584 1.68481293 -0.86268584 1.68481293 -3.82963562 2.21194458 C-4.54585587 2.47200287 -5.26207611 2.73206116 -6 3 C-6.35338623 5.96844435 -6.5417682 8.15598218 -4.88671875 10.734375 C-3.64496832 12.20348819 -2.32662082 13.60704814 -1 15 C-4.81972698 13.49939297 -6.89002382 11.51662697 -9 8 C-8.875 4.25 -8.875 4.25 -8 1 C-5.11138291 -0.44430855 -3.20352299 -0.37688506 0 0 Z " fill="#3F4350" transform="translate(316,277)"/>
<path d="M0 0 C5.7694859 3.92309112 10.676046 8.33133012 15.5480957 13.31420898 C16.26803711 14.03092773 16.98797852 14.74764648 17.72973633 15.48608398 C30.61394446 28.49948654 30.61394446 28.49948654 31.0480957 36.31420898 C30.8715824 39.72679948 30.33534075 41.89754732 28.8605957 44.93920898 C27.20222229 41.62246217 28.18219112 37.90776282 28.5090332 34.27514648 C27.52058113 29.1899774 24.4291687 26.54906991 20.8605957 22.93920898 C20.10391602 22.15239746 19.34723633 21.36558594 18.56762695 20.55493164 C16.12526164 18.03475558 13.65368897 15.54672967 11.1730957 13.06420898 C9.91142578 11.78416992 9.91142578 11.78416992 8.62426758 10.47827148 C7.81151367 9.66358398 6.99875977 8.84889648 6.16137695 8.00952148 C5.43088135 7.27491699 4.70038574 6.5403125 3.94775391 5.78344727 C0.37083819 2.62284119 -2.39410098 1.64841007 -7.1394043 1.62670898 C-7.9850293 1.60995117 -8.8306543 1.59319336 -9.7019043 1.57592773 C-12.59270965 2.00676892 -13.96766705 3.03391172 -16.1394043 4.93920898 C-16.7994043 4.60920898 -17.4594043 4.27920898 -18.1394043 3.93920898 C-13.27981078 -1.25552892 -6.72602663 -3.3349978 0 0 Z " fill="#373F4C" transform="translate(488.139404296875,368.060791015625)"/>
<path d="M0 0 C3.68656302 1.59544534 5.33861152 3.39228119 7.23828125 7.00390625 C8.91483726 11.39734277 8.62420325 15.38161121 6.92578125 19.78515625 C4.41638363 23.97427236 1.26275829 27.01695864 -2.25 30.375 C-7.00338466 35.00459564 -11.62113608 39.61038083 -15.80078125 44.77734375 C-16.19652344 45.18082031 -16.59226563 45.58429688 -17 46 C-17.66 46 -18.32 46 -19 46 C-19.33 46.99 -19.66 47.98 -20 49 C-25.34772416 52.1155268 -30.27687813 52.26594501 -36.15234375 50.8359375 C-38 50 -38 50 -40 47 C-39.175 47.33 -38.35 47.66 -37.5 48 C-33.60642682 49.11244948 -29.99993108 49.86763211 -26 49 C-21.62708206 46.33379223 -18.07283603 43.32957986 -14.453125 39.71875 C-13.955849 39.22338745 -13.458573 38.7280249 -12.94622803 38.21765137 C-11.90521702 37.17799163 -10.86668819 36.13584099 -9.83056641 35.09130859 C-8.24730894 33.49729065 -6.65359327 31.91429037 -5.05859375 30.33203125 C-4.04362858 29.31574518 -3.0292836 28.29883927 -2.015625 27.28125 C-1.10071289 26.36408203 -0.18580078 25.44691406 0.75683594 24.50195312 C4.80956062 19.98167423 5.48179299 16.56705317 5.40234375 10.6171875 C4.75067972 6.3782079 2.60304478 3.32817869 0 0 Z " fill="#353A43" transform="translate(271,452)"/>
<path d="M0 0 C0.33 0.99 0.66 1.98 1 3 C-1.80530847 5.8546576 -4.61707696 8.70277231 -7.43505859 11.54492188 C-8.39324956 12.51318538 -9.34963982 13.48323426 -10.30419922 14.45507812 C-11.6746382 15.8497097 -13.05206367 17.23746521 -14.4296875 18.625 C-15.25710449 19.46289062 -16.08452148 20.30078125 -16.93701172 21.1640625 C-19 23 -19 23 -21 23 C-21.2475 23.5775 -21.495 24.155 -21.75 24.75 C-23.19393699 27.34908658 -24.73521987 29.07836838 -27 31 C-27.99 31 -28.98 31 -30 31 C-30 30.01 -30 29.02 -30 28 C-29.01 28 -28.02 28 -27 28 C-26.6596875 27.13375 -26.6596875 27.13375 -26.3125 26.25 C-24.65273655 23.40469122 -22.57933333 22.06346666 -20 20 C-18.93701263 18.83154652 -17.89754545 17.64150436 -16.875 16.4375 C-13.78799925 12.82577727 -10.5409934 9.42421006 -7.1875 6.0625 C-6.70716309 5.57773193 -6.22682617 5.09296387 -5.73193359 4.59350586 C-2.24843387 1.12421693 -2.24843387 1.12421693 0 0 Z " fill="#7F848C" transform="translate(429,299)"/>
<path d="M0 0 C6.66738941 -0.54427669 10.50103845 0.11838008 16 4 C18.4375 6.125 18.4375 6.125 20 8 C20 8.66 20 9.32 20 10 C20.66 10 21.32 10 22 10 C23.33984375 11.36328125 23.33984375 11.36328125 24.9375 13.3125 C28.87949929 17.98634726 33.22461378 22.17408016 37.64453125 26.38671875 C40.89116276 29.98870296 41.87737193 32.65109124 42.3125 37.4375 C41.97098844 41.3307318 41.04681463 43.69360714 39 47 C38.01 47.495 38.01 47.495 37 48 C37.47759766 46.92685547 37.47759766 46.92685547 37.96484375 45.83203125 C39.01003454 42.97254702 39.42647311 40.71958327 39.5625 37.6875 C39.62566406 36.80449219 39.68882812 35.92148438 39.75390625 35.01171875 C38.55888064 30.23780816 35.37445642 27.46773839 32 24 C31.21794189 23.18136475 30.43588379 22.36272949 29.63012695 21.51928711 C27.06858758 18.8636778 24.47628391 16.24165338 21.875 13.625 C20.99457031 12.72394531 20.11414063 11.82289063 19.20703125 10.89453125 C17.92505859 9.60482422 17.92505859 9.60482422 16.6171875 8.2890625 C15.85003418 7.51256348 15.08288086 6.73606445 14.29248047 5.93603516 C9.95199897 2.2704315 5.54394685 1.65222904 0 1 C0 0.67 0 0.34 0 0 Z " fill="#383D48" transform="translate(238,128)"/>
<path d="M0 0 C0 4.59914218 -2.8949131 6.81003601 -6 10 C-7.99665598 11.67067133 -9.99651034 13.33752986 -12 15 C-13.20114077 16.45401251 -14.40183137 17.90862633 -15.578125 19.3828125 C-19.38705793 23.7149505 -24.82919099 29.46918308 -30.63671875 30.44140625 C-36.5334413 30.6754631 -40.1343534 30.57866067 -44.625 26.5 C-45.23601562 25.8503125 -45.84703125 25.200625 -46.4765625 24.53125 C-46.97929687 24.0259375 -47.48203125 23.520625 -48 23 C-48.66 23 -49.32 23 -50 23 C-49.505 21.515 -49.505 21.515 -49 20 C-48.46890625 20.40992188 -47.9378125 20.81984375 -47.390625 21.2421875 C-46.68421875 21.78101563 -45.9778125 22.31984375 -45.25 22.875 C-44.55390625 23.40867187 -43.8578125 23.94234375 -43.140625 24.4921875 C-38.71528576 27.60930602 -35.83805276 28.54822772 -30.46679688 27.70336914 C-27.71974054 26.92008833 -26.4519582 26.0038543 -24.359375 24.0859375 C-23.67133789 23.45598877 -22.98330078 22.82604004 -22.27441406 22.17700195 C-17.94973897 18.03755071 -13.71298334 13.81528624 -9.5 9.5625 C-8.5821875 8.64017578 -7.664375 7.71785156 -6.71875 6.76757812 C-4.47684945 4.51400101 -2.237334 2.25810925 0 0 Z " fill="#373A42" transform="translate(514,234)"/>
<path d="M0 0 C4.33286592 1.66567595 7.13493864 4.87459662 10.3125 8.125 C10.89064453 8.70886475 11.46878906 9.29272949 12.06445312 9.89428711 C15.14946659 13.03178744 18.13688226 16.21903579 21 19.5625 C25.73873862 25.20537666 25.73873862 25.20537666 32.5625 27.4375 C36.07967359 26.98985972 37.4837345 26.41561488 40 24 C38.125 27.875 38.125 27.875 37 29 C32.94419357 29.7809868 29.40504902 29.87752159 25.8359375 27.6484375 C23.78338178 25.8494794 21.8856117 23.97257911 20 22 C19.39542969 21.42894531 18.79085938 20.85789062 18.16796875 20.26953125 C16.72493408 18.90084497 15.3546353 17.45623294 14 16 C14 15.34 14 14.68 14 14 C13.01 13.67 12.02 13.34 11 13 C9.31640625 11.328125 9.31640625 11.328125 7.5625 9.25 C6.9540625 8.53328125 6.345625 7.8165625 5.71875 7.078125 C3.78484399 4.73985682 1.86815572 2.39123933 0 0 Z " fill="#393D4D" transform="translate(310,347)"/>
<path d="M0 0 C0.66 0.33 1.32 0.66 2 1 C1 4 1 4 -1.3515625 6.15625 C-4.6418009 9.68913135 -5.81913261 13.00148297 -7.375 17.5 C-14.61732977 37.21244697 -14.61732977 37.21244697 -22 44 C-20.71888039 40.53382359 -19.14052982 37.36133157 -17.3347168 34.13989258 C-13.32746753 26.97622868 -10.14171683 19.70859045 -7.34692383 11.99145508 C-4.71460549 4.81872735 -4.71460549 4.81872735 -2 2 C-1.34 2 -0.68 2 0 2 C0 1.34 0 0.68 0 0 Z " fill="#212838" transform="translate(217,327)"/>
<path d="M0 0 C0.66 0.33 1.32 0.66 2 1 C-2.79281788 7.13625925 -7.87463175 12.84200189 -15.5625 15 C-19.52060115 15 -22.3377944 14.52016082 -26 13 C-28.4375 10.375 -28.4375 10.375 -30 8 C-26 10 -26 10 -24.25 11.125 C-20.82836476 12.45563593 -17.58275566 12.54368666 -14 12 C-8.40514889 9.20257445 -4.28203444 4.47766038 0 0 Z " fill="#252835" transform="translate(438,490)"/>
<path d="M0 0 C4.76012398 4.05116934 9.44420436 8.17247382 14.08203125 12.36328125 C17.53024754 15.30585279 20.203377 15.32213167 24.6015625 15.30078125 C28.42258577 14.82159755 30.84323997 13.14928343 34 11 C33 14 33 14 30.875 15.625 C25.81006923 18.0473582 21.30453307 18.53490853 15.89941406 16.8894043 C12.09935744 15.11002046 9.41486582 12.00630302 6.5625 9 C5.92634766 8.35804688 5.29019531 7.71609375 4.63476562 7.0546875 C0 2.29546523 0 2.29546523 0 0 Z " fill="#161E2B" transform="translate(158,248)"/>
<path d="M0 0 C0.99 0.33 1.98 0.66 3 1 C-1.625 5.875 -1.625 5.875 -5 7 C-5.33 7.99 -5.66 8.98 -6 10 C-11.34772416 13.1155268 -16.27687813 13.26594501 -22.15234375 11.8359375 C-24 11 -24 11 -26 8 C-24.7625 8.495 -24.7625 8.495 -23.5 9 C-18.06357538 10.55326418 -13.98308728 11.03120539 -8.875 8.375 C-5.68924135 5.74328633 -2.852517 2.98835115 0 0 Z " fill="#1F2533" transform="translate(257,491)"/>
<path d="M0 0 C0.53109375 0.40992188 1.0621875 0.81984375 1.609375 1.2421875 C2.31578125 1.78101563 3.0221875 2.31984375 3.75 2.875 C4.44609375 3.40867187 5.1421875 3.94234375 5.859375 4.4921875 C9.62035835 7.1413473 11.91655073 8.34744864 16.5625 7.75 C17.32691406 7.66234375 18.09132813 7.5746875 18.87890625 7.484375 C21.28412893 7.06735941 21.28412893 7.06735941 24 5 C24.99 5.33 25.98 5.66 27 6 C22.30522729 10.1731313 18.21552553 10.76822268 11.984375 10.60546875 C7.70212493 9.73668765 5.462997 7.65685757 2.5234375 4.53125 C1.76933594 3.77328125 1.76933594 3.77328125 1 3 C0.34 3 -0.32 3 -1 3 C-0.67 2.01 -0.34 1.02 0 0 Z " fill="#282C3A" transform="translate(465,254)"/>
<path d="M0 0 C-0.58110671 3.42754467 -1.68553624 5.04538661 -4.16015625 7.453125 C-4.78857422 8.071875 -5.41699219 8.690625 -6.06445312 9.328125 C-6.72380859 9.96234375 -7.38316406 10.5965625 -8.0625 11.25 C-8.72572266 11.8996875 -9.38894531 12.549375 -10.07226562 13.21875 C-11.70829317 14.8194676 -13.35090912 16.41276193 -15 18 C-15.66 17.67 -16.32 17.34 -17 17 C-16.37351563 16.39671875 -15.74703125 15.7934375 -15.1015625 15.171875 C-14.28429687 14.37265625 -13.46703125 13.5734375 -12.625 12.75 C-11.40683594 11.56664062 -11.40683594 11.56664062 -10.1640625 10.359375 C-8.2199898 8.23984448 -7.16965423 6.57979812 -6 4 C-2.44444444 0 -2.44444444 0 0 0 Z " fill="#C1C6CD" transform="translate(188,177)"/>
<path d="M0 0 C0.66 0.33 1.32 0.66 2 1 C1.01 1.66 0.02 2.32 -1 3 C-0.67 2.01 -0.34 1.02 0 0 Z M-2.75 3.25 C-2.1725 3.4975 -1.595 3.745 -1 4 C-2.375 5.5 -2.375 5.5 -4 7 C-4.66 7 -5.32 7 -6 7 C-6.2475 7.5775 -6.495 8.155 -6.75 8.75 C-8.16683317 11.3002997 -9.87627537 13.01785701 -12 15 C-12.66 14.67 -13.32 14.34 -14 14 C-13.319375 13.38125 -13.319375 13.38125 -12.625 12.75 C-10.92926194 11.09540456 -10.92926194 11.09540456 -10.0625 9.0625 C-8.3839118 5.80406408 -6.68987228 2.81223641 -2.75 3.25 Z " fill="#ABB1B9" transform="translate(448,395)"/>
<path d="M0 0 C0.99 0.33 1.98 0.66 3 1 C-0.96 4.96 -4.92 8.92 -9 13 C-9 9.10735904 -8.02398803 7.09801126 -5.37890625 4.26171875 C-4.77949219 3.74222656 -4.18007812 3.22273438 -3.5625 2.6875 C-2.96566406 2.15511719 -2.36882812 1.62273437 -1.75390625 1.07421875 C-1.17511719 0.71972656 -0.59632813 0.36523438 0 0 Z " fill="#A7ADB6" transform="translate(157,382)"/>
<path d="M0 0 C0.66 0 1.32 0 2 0 C0.34136495 4.32504836 -2.871041 7.09418825 -6.125 10.25 C-6.68832031 10.80429688 -7.25164062 11.35859375 -7.83203125 11.9296875 C-9.21686028 13.29104485 -10.60783204 14.64614859 -12 16 C-12 12.06830895 -10.60580385 10.83572772 -8 8 C-7.34 8 -6.68 8 -6 8 C-6 7.34 -6 6.68 -6 6 C-5.34 6 -4.68 6 -4 6 C-4 5.34 -4 4.68 -4 4 C-3.34 4 -2.68 4 -2 4 C-1.34 2.68 -0.68 1.36 0 0 Z " fill="#343945" transform="translate(217,217)"/>
<path d="M0 0 C6.64453639 -0.54241113 10.55597579 0.05041381 16 4 C18.4375 6.75 18.4375 6.75 20 9 C16.81466541 8.63246139 15.79208345 7.80693464 13.375 5.5625 C9.50748153 2.11363044 4.99792808 1.66178099 0 1 C0 0.67 0 0.34 0 0 Z " fill="#242834" transform="translate(238,128)"/>
<path d="M0 0 C4.32504836 1.65863505 7.09418825 4.871041 10.25 8.125 C11.08144531 8.96998047 11.08144531 8.96998047 11.9296875 9.83203125 C13.29104485 11.21686028 14.64614859 12.60783204 16 14 C15.01 14.495 15.01 14.495 14 15 C12.9029946 13.9029946 11.80635878 12.80561849 10.7109375 11.70703125 C9.36694043 10.36610267 8.01666607 9.03146541 6.6640625 7.69921875 C5.43816406 6.48685547 5.43816406 6.48685547 4.1875 5.25 C3.39730469 4.47140625 2.60710937 3.6928125 1.79296875 2.890625 C0 1 0 1 0 0 Z " fill="#13161D" transform="translate(310,347)"/>
<path d="M0 0 C0.24492187 0.57234375 0.48984375 1.1446875 0.7421875 1.734375 C2.21110099 4.38024402 3.95348244 6.14853139 6.125 8.25 C6.84945313 8.95640625 7.57390625 9.6628125 8.3203125 10.390625 C8.87460937 10.92171875 9.42890625 11.4528125 10 12 C9.01 12.33 8.02 12.66 7 13 C5.81836949 11.78521149 4.65517165 10.55247592 3.5 9.3125 C2.8503125 8.62800781 2.200625 7.94351562 1.53125 7.23828125 C-0.27813784 4.59343628 -0.3077917 3.13837611 0 0 Z " fill="#292C38" transform="translate(393,464)"/>
<path d="M0 0 C0.66 0.33 1.32 0.66 2 1 C1.01 1.33 0.02 1.66 -1 2 C-2.09166275 3.93330603 -2.09166275 3.93330603 -3 6 C-3.66 6.66 -4.32 7.32 -5 8 C-5.99 8 -6.98 8 -8 8 C-8 8.66 -8 9.32 -8 10 C-8.66 9.67 -9.32 9.34 -10 9 C-6.83047153 5.73991357 -3.60062011 2.77762123 0 0 Z " fill="#8B919B" transform="translate(411,432)"/>
<path d="M0 0 C7.48291572 6.15034169 7.48291572 6.15034169 10 10 C6.7451198 9.41978222 5.06347592 8.47352859 2.75 6.125 C2.22921875 5.61195313 1.7084375 5.09890625 1.171875 4.5703125 C0 3 0 3 0 0 Z " fill="#282F3D" transform="translate(502,381)"/>
<path d="M0 0 C1.32 0.33 2.64 0.66 4 1 C3.07213211 2.00894372 2.13231567 3.00690907 1.1875 4 C0.40439453 4.8353125 0.40439453 4.8353125 -0.39453125 5.6875 C-2 7 -2 7 -5 7 C-5 6.01 -5 5.02 -5 4 C-4.01 4 -3.02 4 -2 4 C-1.34 2.68 -0.68 1.36 0 0 Z " fill="#818590" transform="translate(404,323)"/>
<path d="M0 0 C0.66 0 1.32 0 2 0 C0.44499019 3.81684226 -2.03595495 6.19195732 -5 9 C-5.66 8.67 -6.32 8.34 -7 8 C-5.88200014 6.66079162 -4.75538103 5.32877444 -3.625 4 C-2.68527344 2.88625 -2.68527344 2.88625 -1.7265625 1.75 C-1.15679687 1.1725 -0.58703125 0.595 0 0 Z " fill="#CBD0DA" transform="translate(480,434)"/>
<path d="M0 0 C0.99 0.33 1.98 0.66 3 1 C-1.5 5.875 -1.5 5.875 -6 7 C-4.02 4.69 -2.04 2.38 0 0 Z " fill="#2E3237" transform="translate(257,491)"/>
<path d="M0 0 C-1.28519565 2.86697492 -2.57129254 4.97607712 -5 7 C-5.66 7 -6.32 7 -7 7 C-3.86206897 0 -3.86206897 0 0 0 Z " fill="#2A2F38" transform="translate(204,232)"/>
<path d="M0 0 C3.78611227 0.54087318 5.55400767 2.11722332 8 5 C8 5.66 8 6.32 8 7 C3.8575633 5.61918777 2.67796901 3.40174442 0 0 Z " fill="#343840" transform="translate(203,400)"/>
<path d="M0 0 C0.66 0.33 1.32 0.66 2 1 C0.61918777 5.1424367 -1.59825558 6.32203099 -5 9 C-4.38722388 6.03824877 -3.74627478 4.61941217 -2 2 C-1.34 2 -0.68 2 0 2 C0 1.34 0 0.68 0 0 Z " fill="#47505C" transform="translate(217,327)"/>
<path d="M0 0 C0.66 0.33 1.32 0.66 2 1 C0.35 2.65 -1.3 4.3 -3 6 C-3.99 5.34 -4.98 4.68 -6 4 C-4.02 2.68 -2.04 1.36 0 0 Z " fill="#767B84" transform="translate(381,182)"/>
<path d="M0 0 C0.66 0 1.32 0 2 0 C2.625 2.375 2.625 2.375 3 5 C2.34 5.66 1.68 6.32 1 7 C-1.125 6.625 -1.125 6.625 -3 6 C-2.01 5.34 -1.02 4.68 0 4 C0 2.68 0 1.36 0 0 Z " fill="#6D7480" transform="translate(386,175)"/>
</svg>
